<svg xmlns="http://www.w3.org/2000/svg" xmlns:xlink="http://www.w3.org/1999/xlink" xmlns:lucid="lucid" width="1140" height="1340"><g transform="translate(-220 20)" lucid:page-tab-id="0_0"><path d="M0 0h1760v1360H0z" fill="#fff"/><path d="M448 110c17.67 0 32 13.56 32 30.28s-14.33 30.28-32 30.28h-96c-17.67 0-32-13.56-32-30.28S334.33 110 352 110z" stroke="#3a414a" fill="#fff"/><use xlink:href="#a" transform="matrix(1,0,0,1,325,115) translate(51.574074074074076 30.52777777777778)"/><path d="M440 0h900v40.56H440z" fill="none"/><use xlink:href="#b" transform="matrix(1,0,0,1,440,0) translate(102.44209876543209 27.084444444444443)"/><use xlink:href="#c" transform="matrix(1,0,0,1,440,0) translate(241.92975308641974 27.084444444444443)"/><use xlink:href="#d" transform="matrix(1,0,0,1,440,0) translate(398.82604938271606 27.084444444444443)"/><use xlink:href="#e" transform="matrix(1,0,0,1,440,0) translate(448.2112345679012 27.084444444444443)"/><use xlink:href="#f" transform="matrix(1,0,0,1,440,0) translate(602.2667901234568 27.084444444444443)"/><use xlink:href="#g" transform="matrix(1,0,0,1,440,0) translate(648.7383950617284 27.084444444444443)"/><use xlink:href="#h" transform="matrix(1,0,0,1,440,0) translate(747.5087654320988 27.084444444444443)"/><a xlink:href="https://www.luquelab.com/" target="_blank"><path d="M660 40.56h420.62V71.6H660z" fill="#fff" fill-opacity="0"/><use xlink:href="#i" transform="matrix(1,0,0,1,665,45.55555555555554) translate(87.62934156378603 14.917037037037037)"/><use xlink:href="#j" transform="matrix(1,0,0,1,665,45.55555555555554) translate(223.34148148148148 14.917037037037037)"/><use xlink:href="#k" transform="matrix(1,0,0,1,665,45.55555555555554) translate(235.7909670781893 14.917037037037037)"/><use xlink:href="#l" transform="matrix(1,0,0,1,665,45.55555555555554) translate(270.50506172839505 14.917037037037037)"/><use xlink:href="#m" transform="matrix(1,0,0,1,665,45.55555555555554) translate(295.9988888888889 14.917037037037037)"/><path class="lucid-link lucid-hotspot lucid-overlay-hotspot" d="M660 40.56h420.62V71.6H660z" fill="none"/></a><path d="M321.55 245.8A4.6 4.6 0 0 1 326 240h148a4.6 4.6 0 0 1 4.45 5.8l-28.9 108.4A7.8 7.8 0 0 1 442 360h-84a7.8 7.8 0 0 1-7.55-5.8z" stroke="#3a414a" fill="#fff"/><use xlink:href="#n" transform="matrix(1,0,0,1,325,245) translate(31.239567901234565 45.27777777777778)"/><use xlink:href="#o" transform="matrix(1,0,0,1,325,245) translate(74.44944444444445 45.27777777777778)"/><use xlink:href="#p" transform="matrix(1,0,0,1,325,245) translate(53.43092592592593 71.94444444444446)"/><path d="M400 171.56v51.56" stroke="#3a414a" fill="none"/><path d="M400.5 171.57h-1v-.5h1z" stroke="#3a414a" stroke-width=".05" fill="#3a414a"/><path d="M400 237.88l-4.63-14.26h9.26z" stroke="#3a414a" fill="#3a414a"/><path d="M241.55 665.8A4.6 4.6 0 0 1 246 660h168a4.6 4.6 0 0 1 4.45 5.8l-28.9 108.4A7.8 7.8 0 0 1 382 780H278a7.8 7.8 0 0 1-7.55-5.8z" stroke="#3a414a" fill="#fff"/><use xlink:href="#q" transform="matrix(1,0,0,1,245,665) translate(40.59018518518519 41.12916666666666)"/><use xlink:href="#r" transform="matrix(1,0,0,1,245,665) translate(35.90870370370371 66.72916666666667)"/><use xlink:href="#s" transform="matrix(1,0,0,1,245,665) translate(67.81981481481482 92.32916666666667)"/><path d="M501.55 665.8A4.6 4.6 0 0 1 506 660h168a4.6 4.6 0 0 1 4.45 5.8l-28.9 108.4A7.8 7.8 0 0 1 642 780H538a7.8 7.8 0 0 1-7.55-5.8z" stroke="#3a414a" fill="#fff"/><use xlink:href="#t" transform="matrix(1,0,0,1,505,665) translate(12.205000000000007 44.56666666666666)"/><use xlink:href="#u" transform="matrix(1,0,0,1,505,665) translate(86.8124074074074 44.56666666666666)"/><use xlink:href="#v" transform="matrix(1,0,0,1,505,665) translate(17.449444444444463 70.16666666666667)"/><path d="M781.55 665.8A4.6 4.6 0 0 1 786 660h168a4.6 4.6 0 0 1 4.45 5.8l-28.9 108.4A7.8 7.8 0 0 1 922 780H818a7.8 7.8 0 0 1-7.55-5.8z" stroke="#3a414a" fill="#fff"/><use xlink:href="#w" transform="matrix(1,0,0,1,785,665) translate(29.953148148148152 48.00416666666666)"/><use xlink:href="#x" transform="matrix(1,0,0,1,785,665) translate(73.805 48.00416666666666)"/><use xlink:href="#y" transform="matrix(1,0,0,1,785,665) translate(129.44944444444445 48.00416666666666)"/><use xlink:href="#z" transform="matrix(1,0,0,1,785,665) translate(31.16796296296297 73.60416666666667)"/><path d="M720 436.67a6 6 0 0 1 6-6h488a6 6 0 0 1 6 6v108a6 6 0 0 1-6 6H726a6 6 0 0 1-6-6z" fill="#fff" fill-opacity="0"/><path d="M770 430.67h-44a6 6 0 0 0-6 6v108a6 6 0 0 0 6 6h44" stroke="#3a414a" fill="none"/><use xlink:href="#A" transform="matrix(1,0,0,1,756.25,435.66666666666663) translate(0 20.866666666666667)"/><use xlink:href="#B" transform="matrix(1,0,0,1,756.25,435.66666666666663) translate(121.83703703703704 20.866666666666667)"/><use xlink:href="#C" transform="matrix(1,0,0,1,756.25,435.66666666666663) translate(173.92592592592592 20.866666666666667)"/><use xlink:href="#D" transform="matrix(1,0,0,1,756.25,435.66666666666663) translate(233.06666666666666 20.866666666666667)"/><use xlink:href="#E" transform="matrix(1,0,0,1,756.25,435.66666666666663) translate(283.85185185185185 20.866666666666667)"/><use xlink:href="#F" transform="matrix(1,0,0,1,756.25,435.66666666666663) translate(319.4074074074074 20.866666666666667)"/><use xlink:href="#G" transform="matrix(1,0,0,1,756.25,435.66666666666663) translate(359.7037037037037 20.866666666666667)"/><use xlink:href="#H" transform="matrix(1,0,0,1,756.25,435.66666666666663) translate(0 46.46666666666667)"/><use xlink:href="#E" transform="matrix(1,0,0,1,756.25,435.66666666666663) translate(69.86666666666667 46.46666666666667)"/><use xlink:href="#I" transform="matrix(1,0,0,1,756.25,435.66666666666663) translate(105.42222222222223 46.46666666666667)"/><use xlink:href="#J" transform="matrix(1,0,0,1,756.25,435.66666666666663) translate(191.94074074074075 46.46666666666667)"/><use xlink:href="#E" transform="matrix(1,0,0,1,756.25,435.66666666666663) translate(214.4 46.46666666666667)"/><use xlink:href="#K" transform="matrix(1,0,0,1,756.25,435.66666666666663) translate(249.95555555555558 46.46666666666667)"/><use xlink:href="#L" transform="matrix(1,0,0,1,756.25,435.66666666666663) translate(298.48888888888894 46.46666666666667)"/><use xlink:href="#M" transform="matrix(1,0,0,1,756.25,435.66666666666663) translate(323.31851851851854 46.46666666666667)"/><use xlink:href="#N" transform="matrix(1,0,0,1,756.25,435.66666666666663) translate(413.33333333333337 46.46666666666667)"/><use xlink:href="#O" transform="matrix(1,0,0,1,756.25,435.66666666666663) translate(0 72.06666666666668)"/><use xlink:href="#J" transform="matrix(1,0,0,1,756.25,435.66666666666663) translate(55.64444444444445 72.06666666666668)"/><use xlink:href="#E" transform="matrix(1,0,0,1,756.25,435.66666666666663) translate(78.10370370370372 72.06666666666668)"/><use xlink:href="#P" transform="matrix(1,0,0,1,756.25,435.66666666666663) translate(113.65925925925927 72.06666666666668)"/><use xlink:href="#Q" transform="matrix(1,0,0,1,756.25,435.66666666666663) translate(213.03703703703707 72.06666666666668)"/><use xlink:href="#R" transform="matrix(1,0,0,1,756.25,435.66666666666663) translate(236.74074074074076 72.06666666666668)"/><use xlink:href="#S" transform="matrix(1,0,0,1,756.25,435.66666666666663) translate(266.3703703703704 72.06666666666668)"/><use xlink:href="#T" transform="matrix(1,0,0,1,756.25,435.66666666666663) translate(348.0888888888889 72.06666666666668)"/><use xlink:href="#U" transform="matrix(1,0,0,1,756.25,435.66666666666663) translate(376.53333333333336 72.06666666666668)"/><use xlink:href="#V" transform="matrix(1,0,0,1,756.25,435.66666666666663) translate(0 97.66666666666669)"/><use xlink:href="#W" transform="matrix(1,0,0,1,756.25,435.66666666666663) translate(106.48888888888888 97.66666666666669)"/><use xlink:href="#E" transform="matrix(1,0,0,1,756.25,435.66666666666663) translate(147.97037037037035 97.66666666666669)"/><use xlink:href="#X" transform="matrix(1,0,0,1,756.25,435.66666666666663) translate(183.5259259259259 97.66666666666669)"/><use xlink:href="#Y" transform="matrix(1,0,0,1,756.25,435.66666666666663) translate(217.837037037037 97.66666666666669)"/><path d="M720 986a6 6 0 0 1 6-6h488a6 6 0 0 1 6 6v108a6 6 0 0 1-6 6H726a6 6 0 0 1-6-6z" fill="#fff" fill-opacity="0"/><path d="M770 980h-44a6 6 0 0 0-6 6v108a6 6 0 0 0 6 6h44" stroke="#3a414a" fill="none"/><use xlink:href="#Z" transform="matrix(1,0,0,1,756.25,985) translate(0 20.866666666666667)"/><use xlink:href="#aa" transform="matrix(1,0,0,1,756.25,985) translate(74.60740740740741 20.866666666666667)"/><use xlink:href="#I" transform="matrix(1,0,0,1,756.25,985) translate(114.90370370370371 20.866666666666667)"/><use xlink:href="#ab" transform="matrix(1,0,0,1,756.25,985) translate(201.42222222222225 20.866666666666667)"/><use xlink:href="#J" transform="matrix(1,0,0,1,756.25,985) translate(294.9925925925926 20.866666666666667)"/><use xlink:href="#E" transform="matrix(1,0,0,1,756.25,985) translate(317.45185185185187 20.866666666666667)"/><use xlink:href="#ac" transform="matrix(1,0,0,1,756.25,985) translate(353.0074074074074 20.866666666666667)"/><use xlink:href="#Q" transform="matrix(1,0,0,1,756.25,985) translate(0 46.46666666666667)"/><use xlink:href="#E" transform="matrix(1,0,0,1,756.25,985) translate(23.703703703703706 46.46666666666667)"/><use xlink:href="#ad" transform="matrix(1,0,0,1,756.25,985) translate(59.25925925925927 46.46666666666667)"/><use xlink:href="#X" transform="matrix(1,0,0,1,756.25,985) translate(167.05185185185184 46.46666666666667)"/><use xlink:href="#ae" transform="matrix(1,0,0,1,756.25,985) translate(201.36296296296294 46.46666666666667)"/><use xlink:href="#af" transform="matrix(1,0,0,1,756.25,985) translate(304.237037037037 46.46666666666667)"/><use xlink:href="#ag" transform="matrix(1,0,0,1,756.25,985) translate(356.38518518518515 46.46666666666667)"/><use xlink:href="#ah" transform="matrix(1,0,0,1,756.25,985) translate(374.1629629629629 46.46666666666667)"/><use xlink:href="#ai" transform="matrix(1,0,0,1,756.25,985) translate(0 72.06666666666668)"/><use xlink:href="#aj" transform="matrix(1,0,0,1,756.25,985) translate(42.60740740740741 72.06666666666668)"/><use xlink:href="#ak" transform="matrix(1,0,0,1,756.25,985) translate(82.78518518518518 72.06666666666668)"/><use xlink:href="#al" transform="matrix(1,0,0,1,756.25,985) translate(123.08148148148149 72.06666666666668)"/><use xlink:href="#E" transform="matrix(1,0,0,1,756.25,985) translate(146.78518518518518 72.06666666666668)"/><use xlink:href="#am" transform="matrix(1,0,0,1,756.25,985) translate(182.34074074074073 72.06666666666668)"/><use xlink:href="#an" transform="matrix(1,0,0,1,756.25,985) translate(247.46666666666667 72.06666666666668)"/><use xlink:href="#aj" transform="matrix(1,0,0,1,756.25,985) translate(279.34814814814814 72.06666666666668)"/><use xlink:href="#ao" transform="matrix(1,0,0,1,756.25,985) translate(319.5259259259259 72.06666666666668)"/><use xlink:href="#ap" transform="matrix(1,0,0,1,756.25,985) translate(398.75555555555553 72.06666666666668)"/><use xlink:href="#aq" transform="matrix(1,0,0,1,756.25,985) translate(0 97.66666666666669)"/><path d="M720 1146a6 6 0 0 1 6-6h488a6 6 0 0 1 6 6v108a6 6 0 0 1-6 6H726a6 6 0 0 1-6-6z" fill="#fff" fill-opacity="0"/><path d="M770 1140h-44a6 6 0 0 0-6 6v108a6 6 0 0 0 6 6h44" stroke="#3a414a" fill="none"/><g><use xlink:href="#ar" transform="matrix(1,0,0,1,756.25,1145) translate(0 20.866666666666667)"/><use xlink:href="#E" transform="matrix(1,0,0,1,756.25,1145) translate(75.67407407407408 20.866666666666667)"/><use xlink:href="#P" transform="matrix(1,0,0,1,756.25,1145) translate(111.22962962962964 20.866666666666667)"/><use xlink:href="#as" transform="matrix(1,0,0,1,756.25,1145) translate(210.60740740740744 20.866666666666667)"/><use xlink:href="#W" transform="matrix(1,0,0,1,756.25,1145) translate(286.4592592592593 20.866666666666667)"/><use xlink:href="#at" transform="matrix(1,0,0,1,756.25,1145) translate(327.94074074074075 20.866666666666667)"/><use xlink:href="#ae" transform="matrix(1,0,0,1,756.25,1145) translate(0 46.46666666666667)"/><use xlink:href="#as" transform="matrix(1,0,0,1,756.25,1145) translate(102.87407407407407 46.46666666666667)"/><use xlink:href="#af" transform="matrix(1,0,0,1,756.25,1145) translate(178.72592592592594 46.46666666666667)"/><use xlink:href="#ag" transform="matrix(1,0,0,1,756.25,1145) translate(230.8740740740741 46.46666666666667)"/><use xlink:href="#au" transform="matrix(1,0,0,1,756.25,1145) translate(248.65185185185186 46.46666666666667)"/><use xlink:href="#av" transform="matrix(1,0,0,1,756.25,1145) translate(326.7555555555556 46.46666666666667)"/><use xlink:href="#U" transform="matrix(1,0,0,1,756.25,1145) translate(391.82222222222225 46.46666666666667)"/><use xlink:href="#aw" transform="matrix(1,0,0,1,756.25,1145) translate(0 72.06666666666668)"/><use xlink:href="#ad" transform="matrix(1,0,0,1,756.25,1145) translate(50.96296296296296 72.06666666666668)"/><use xlink:href="#Q" transform="matrix(1,0,0,1,756.25,1145) translate(158.75555555555553 72.06666666666668)"/><use xlink:href="#X" transform="matrix(1,0,0,1,756.25,1145) translate(182.45925925925923 72.06666666666668)"/><use xlink:href="#ax" transform="matrix(1,0,0,1,756.25,1145) translate(216.77037037037033 72.06666666666668)"/><use xlink:href="#ay" transform="matrix(1,0,0,1,756.25,1145) translate(264.17777777777775 72.06666666666668)"/><use xlink:href="#G" transform="matrix(1,0,0,1,756.25,1145) translate(394.42962962962963 72.06666666666668)"/><use xlink:href="#az" transform="matrix(1,0,0,1,756.25,1145) translate(0 97.66666666666669)"/></g><path d="M720 223.5a6 6 0 0 1 6-6h508a6 6 0 0 1 6 6v153a6 6 0 0 1-6 6H726a6 6 0 0 1-6-6z" fill="#fff" fill-opacity="0"/><path d="M772 217.5h-46a6 6 0 0 0-6 6v153a6 6 0 0 0 6 6h46" stroke="#3a414a" fill="none"/><g><use xlink:href="#aA" transform="matrix(1,0,0,1,757.5,222.5) translate(6.933333333333334 17.76666666666666)"/><use xlink:href="#aB" transform="matrix(1,0,0,1,757.5,222.5) translate(21.333333333333336 17.76666666666666)"/><use xlink:href="#aC" transform="matrix(1,0,0,1,757.5,222.5) translate(69.80740740740741 17.76666666666666)"/><use xlink:href="#aD" transform="matrix(1,0,0,1,757.5,222.5) translate(182.22222222222223 17.76666666666666)"/><use xlink:href="#aA" transform="matrix(1,0,0,1,757.5,222.5) translate(6.933333333333334 43.36666666666666)"/><use xlink:href="#aE" transform="matrix(1,0,0,1,757.5,222.5) translate(21.333333333333336 43.36666666666666)"/><use xlink:href="#aA" transform="matrix(1,0,0,1,757.5,222.5) translate(6.933333333333334 68.96666666666667)"/><use xlink:href="#aF" transform="matrix(1,0,0,1,757.5,222.5) translate(21.333333333333336 68.96666666666667)"/><use xlink:href="#aA" transform="matrix(1,0,0,1,757.5,222.5) translate(6.933333333333334 94.56666666666666)"/><use xlink:href="#aG" transform="matrix(1,0,0,1,757.5,222.5) translate(21.333333333333336 94.56666666666666)"/><use xlink:href="#aA" transform="matrix(1,0,0,1,757.5,222.5) translate(6.933333333333334 120.16666666666669)"/><use xlink:href="#aH" transform="matrix(1,0,0,1,757.5,222.5) translate(21.333333333333336 120.16666666666669)"/><use xlink:href="#ax" transform="matrix(1,0,0,1,757.5,222.5) translate(117.21481481481482 120.16666666666669)"/><use xlink:href="#aI" transform="matrix(1,0,0,1,757.5,222.5) translate(164.62222222222223 120.16666666666669)"/><use xlink:href="#aA" transform="matrix(1,0,0,1,757.5,222.5) translate(6.933333333333334 145.76666666666668)"/><use xlink:href="#aJ" transform="matrix(1,0,0,1,757.5,222.5) translate(21.333333333333336 145.76666666666668)"/></g><path d="M320 426a6 6 0 0 1 6-6h148a6 6 0 0 1 6 6v118.67a6 6 0 0 1-6 6H326a6 6 0 0 1-6-6z" stroke="#3a414a" fill="#fff"/><g><use xlink:href="#aK" transform="matrix(1,0,0,1,332,432) translate(32.22839506172839 21.12152777777778)"/><use xlink:href="#aL" transform="matrix(1,0,0,1,332,432) translate(35.31481481481482 47.78819444444444)"/><use xlink:href="#aM" transform="matrix(1,0,0,1,332,432) translate(31.91111111111111 73.74375)"/><use xlink:href="#aN" transform="matrix(1,0,0,1,332,432) translate(21.274074074074072 99.34375)"/></g><path d="M400 361v42.12" stroke="#3a414a" fill="none"/><path d="M400.5 361h-1v-.5h1z" stroke="#3a414a" stroke-width=".05" fill="#3a414a"/><path d="M400 417.88l-4.63-14.26h9.26z" stroke="#3a414a" fill="#3a414a"/><path d="M424.02 893.8a2.67 2.67 0 0 1 1.98-4.47h188a2.67 2.67 0 0 1 1.98 4.45l-91.96 101.77a5.42 5.42 0 0 1-8.04 0z" stroke="#3a414a" fill="#fff"/><g><use xlink:href="#aO" transform="matrix(1,0,0,1,425,894.3333333333334) translate(26.640802469135817 20.934027777777775)"/><use xlink:href="#aP" transform="matrix(1,0,0,1,425,894.3333333333334) translate(104.23339506172839 20.934027777777775)"/><use xlink:href="#aQ" transform="matrix(1,0,0,1,425,894.3333333333334) translate(132.505 20.934027777777775)"/><use xlink:href="#aR" transform="matrix(1,0,0,1,425,894.3333333333334) translate(53.0296913580247 47.60069444444444)"/></g><path d="M400 551.67v47.66a6 6 0 0 1-6 6h-58a6 6 0 0 0-6 6v31.8" stroke="#3a414a" fill="none"/><path d="M400.5 551.68h-1v-.5h1z" stroke="#3a414a" stroke-width=".05" fill="#3a414a"/><path d="M330 657.88l-4.63-14.26h9.26z" stroke="#3a414a" fill="#3a414a"/><path d="M301.55 1045.8a4.6 4.6 0 0 1 4.45-5.8h168a4.6 4.6 0 0 1 4.45 5.8l-28.9 108.4a7.8 7.8 0 0 1-7.55 5.8H338a7.8 7.8 0 0 1-7.55-5.8z" stroke="#3a414a" fill="#fff"/><g><use xlink:href="#t" transform="matrix(1,0,0,1,304.9999927685308,1045) translate(15.40500000000001 48.00416666666666)"/><use xlink:href="#aS" transform="matrix(1,0,0,1,304.9999927685308,1045) translate(90.01240740740741 48.00416666666666)"/><use xlink:href="#aT" transform="matrix(1,0,0,1,304.9999927685308,1045) translate(46.75314814814814 73.60416666666667)"/></g><path d="M520 998.34v14.33a6 6 0 0 1-6 6H394.45a4.45 4.45 0 0 0-4.45 4.45" stroke="#3a414a" fill="none"/><path d="M520 997.84l.5-.05v.55h-1v-.56z" stroke="#3a414a" stroke-width=".05" fill="#3a414a"/><path d="M390 1037.88l-4.63-14.26h9.26z" stroke="#3a414a" fill="#3a414a"/><path d="M438 1220c17.67 0 32 17.9 32 40s-14.33 40-32 40h-96c-17.67 0-32-17.9-32-40s14.33-40 32-40z" stroke="#3a414a" fill="#fff"/><g><use xlink:href="#aU" transform="matrix(1,0,0,1,314.9999891527948,1225) translate(52.160493827160494 39.65277777777778)"/></g><path d="M390 1161v42.12" stroke="#3a414a" fill="none"/><path d="M390.5 1161h-1v-.5h1z" stroke="#3a414a" stroke-width=".05" fill="#3a414a"/><path d="M390 1217.88l-4.63-14.26h9.26z" stroke="#3a414a" fill="#3a414a"/><path d="M465.02 300H719" stroke="#3a414a" fill="none"/><path d="M465.03 300.5h-.65l.27-1h.38zM719.5 300.5h-.5v-1h.5z" stroke="#3a414a" stroke-width=".05" fill="#3a414a"/><path d="M481 486.05h238" stroke="#3a414a" fill="none"/><path d="M481 486.55h-.5v-1h.5zM719.5 486.55h-.5v-1h.5z" stroke="#3a414a" stroke-width=".05" fill="#3a414a"/><path d="M465.02 1100h121a6 6 0 0 0 6-6v-48a6 6 0 0 1 6-6H719" stroke="#3a414a" fill="none"/><path d="M465.03 1100.5h-.65l.27-1h.38zM719.5 1040.5h-.5v-1h.5z" stroke="#3a414a" stroke-width=".05" fill="#3a414a"/><path d="M465.02 1100h121a6 6 0 0 1 6 6v88a6 6 0 0 0 6 6H719" stroke="#3a414a" fill="none"/><path d="M465.03 1100.5h-.65l.27-1h.38zM719.5 1200.5h-.5v-1h.5z" stroke="#3a414a" stroke-width=".05" fill="#3a414a"/><path d="M405.02 720h94.08" stroke="#3a414a" fill="none"/><path d="M405.03 720.5h-.65l.27-1h.38z" stroke="#3a414a" stroke-width=".05" fill="#3a414a"/><path d="M513.87 720l-14.27 4.63v-9.26z" stroke="#3a414a" fill="#3a414a"/><path d="M665.02 720H779.1" stroke="#3a414a" fill="none"/><path d="M665.03 720.5h-.65l.27-1h.38z" stroke="#3a414a" stroke-width=".05" fill="#3a414a"/><path d="M793.87 720l-14.27 4.63v-9.26z" stroke="#3a414a" fill="#3a414a"/><path d="M330 781v47.67a6 6 0 0 0 6 6h178a6 6 0 0 1 6 6v31.78" stroke="#3a414a" fill="none"/><path d="M330.5 781h-1v-.5h1z" stroke="#3a414a" stroke-width=".05" fill="#3a414a"/><path d="M520 887.2l-4.63-14.25h9.26z" stroke="#3a414a" fill="#3a414a"/><path d="M590 781v47.67a6 6 0 0 1-6 6h-58a6 6 0 0 0-6 6v31.78" stroke="#3a414a" fill="none"/><path d="M590.5 781h-1v-.5h1z" stroke="#3a414a" stroke-width=".05" fill="#3a414a"/><path d="M520 887.2l-4.63-14.25h9.26z" stroke="#3a414a" fill="#3a414a"/><path d="M870 781v47.67a6 6 0 0 1-6 6H526a6 6 0 0 0-6 6v31.78" stroke="#3a414a" fill="none"/><path d="M870.5 781h-1v-.5h1z" stroke="#3a414a" stroke-width=".05" fill="#3a414a"/><path d="M520 887.2l-4.63-14.25h9.26z" stroke="#3a414a" fill="#3a414a"/><defs><path fill="#3a414a" d="M185-189c-5-48-123-54-124 2 14 75 158 14 163 119 3 78-121 87-175 55-17-10-28-26-33-46l33-7c5 56 141 63 141-1 0-78-155-14-162-118-5-82 145-84 179-34 5 7 8 16 11 25" id="aV"/><path fill="#3a414a" d="M59-47c-2 24 18 29 38 22v24C64 9 27 4 27-40v-127H5v-23h24l9-43h21v43h35v23H59v120" id="aW"/><path fill="#3a414a" d="M141-36C126-15 110 5 73 4 37 3 15-17 15-53c-1-64 63-63 125-63 3-35-9-54-41-54-24 1-41 7-42 31l-33-3c5-37 33-52 76-52 45 0 72 20 72 64v82c-1 20 7 32 28 27v20c-31 9-61-2-59-35zM48-53c0 20 12 33 32 33 41-3 63-29 60-74-43 2-92-5-92 41" id="aX"/><path fill="#3a414a" d="M114-163C36-179 61-72 57 0H25l-1-190h30c1 12-1 29 2 39 6-27 23-49 58-41v29" id="aY"/><g id="a"><use transform="matrix(0.06172839506172839,0,0,0.06172839506172839,0,0)" xlink:href="#aV"/><use transform="matrix(0.06172839506172839,0,0,0.06172839506172839,14.814814814814813,0)" xlink:href="#aW"/><use transform="matrix(0.06172839506172839,0,0,0.06172839506172839,20.98765432098765,0)" xlink:href="#aX"/><use transform="matrix(0.06172839506172839,0,0,0.06172839506172839,33.33333333333333,0)" xlink:href="#aY"/><use transform="matrix(0.06172839506172839,0,0,0.06172839506172839,40.679012345679006,0)" xlink:href="#aW"/></g><path d="M76-208v77h127v40H76V0H24v-248h183v40H76" id="aZ"/><path d="M25 0v-261h50V0H25" id="ba"/><path d="M110-194c64 0 96 36 96 99 0 64-35 99-97 99-61 0-95-36-95-99 0-62 34-99 96-99zm-1 164c35 0 45-28 45-65 0-40-10-65-43-65-34 0-45 26-45 65 0 36 10 65 43 65" id="bb"/><path d="M231 0h-52l-39-155L100 0H48L-1-190h46L77-45c9-52 24-97 36-145h53l37 145 32-145h46" id="bc"/><path d="M190-63c-7 42-38 67-86 67-59 0-84-38-90-98-12-110 154-137 174-36l-49 2c-2-19-15-32-35-32-30 0-35 28-38 64-6 74 65 87 74 30" id="bd"/><path d="M114-157C55-157 80-60 75 0H25v-261h50l-1 109c12-26 28-41 61-42 86-1 58 113 63 194h-50c-7-57 23-157-34-157" id="be"/><path d="M133-34C117-15 103 5 69 4 32 3 11-16 11-54c-1-60 55-63 116-61 1-26-3-47-28-47-18 1-26 9-28 27l-52-2c7-38 36-58 82-57s74 22 75 68l1 82c-1 14 12 18 25 15v27c-30 8-71 5-69-32zm-48 3c29 0 43-24 42-57-32 0-66-3-65 30 0 17 8 27 23 27" id="bf"/><path d="M135-150c-39-12-60 13-60 57V0H25l-1-190h47c2 13-1 29 3 40 6-28 27-53 61-41v41" id="bg"/><path d="M115-3C79 11 28 4 28-45v-112H4v-33h27l15-45h31v45h36v33H77v99c-1 23 16 31 38 25v30" id="bh"/><path d="M35-132v-50h50v50H35zM35 0v-49h50V0H35" id="bi"/><g id="b"><use transform="matrix(0.0728395061728395,0,0,0.0728395061728395,0,0)" xlink:href="#aZ"/><use transform="matrix(0.0728395061728395,0,0,0.0728395061728395,15.95185185185185,0)" xlink:href="#ba"/><use transform="matrix(0.0728395061728395,0,0,0.0728395061728395,23.235802469135802,0)" xlink:href="#bb"/><use transform="matrix(0.0728395061728395,0,0,0.0728395061728395,39.187654320987654,0)" xlink:href="#bc"/><use transform="matrix(0.0728395061728395,0,0,0.0728395061728395,59.582716049382704,0)" xlink:href="#bd"/><use transform="matrix(0.0728395061728395,0,0,0.0728395061728395,74.15061728395061,0)" xlink:href="#be"/><use transform="matrix(0.0728395061728395,0,0,0.0728395061728395,90.10246913580247,0)" xlink:href="#bf"/><use transform="matrix(0.0728395061728395,0,0,0.0728395061728395,104.67037037037036,0)" xlink:href="#bg"/><use transform="matrix(0.0728395061728395,0,0,0.0728395061728395,114.8679012345679,0)" xlink:href="#bh"/><use transform="matrix(0.0728395061728395,0,0,0.0728395061728395,123.5358024691358,0)" xlink:href="#bi"/><path d="M-1.3 1.4h142.1v2.76H-1.3z"/></g><path d="M24 0v-248h52V0H24" id="bj"/><path d="M135-194c87-1 58 113 63 194h-50c-7-57 23-157-34-157-59 0-34 97-39 157H25l-1-190h47c2 12-1 28 3 38 12-26 28-41 61-42" id="bk"/><path d="M137-138c1-29-70-34-71-4 15 46 118 7 119 86 1 83-164 76-172 9l43-7c4 19 20 25 44 25 33 8 57-30 24-41C81-84 22-81 20-136c-2-80 154-74 161-7" id="bl"/><path d="M85 4C-2 5 27-109 22-190h50c7 57-23 150 33 157 60-5 35-97 40-157h50l1 190h-47c-2-12 1-28-3-38-12 25-28 42-61 42" id="bm"/><path d="M25-224v-37h50v37H25zM25 0v-190h50V0H25" id="bn"/><g id="c"><use transform="matrix(0.0728395061728395,0,0,0.0728395061728395,0,0)" xlink:href="#bj"/><use transform="matrix(0.0728395061728395,0,0,0.0728395061728395,7.28395061728395,0)" xlink:href="#bk"/><use transform="matrix(0.0728395061728395,0,0,0.0728395061728395,23.235802469135802,0)" xlink:href="#bl"/><use transform="matrix(0.0728395061728395,0,0,0.0728395061728395,37.803703703703704,0)" xlink:href="#bh"/><use transform="matrix(0.0728395061728395,0,0,0.0728395061728395,46.471604938271604,0)" xlink:href="#bg"/><use transform="matrix(0.0728395061728395,0,0,0.0728395061728395,56.669135802469135,0)" xlink:href="#bm"/><use transform="matrix(0.0728395061728395,0,0,0.0728395061728395,72.62098765432098,0)" xlink:href="#bd"/><use transform="matrix(0.0728395061728395,0,0,0.0728395061728395,87.18888888888888,0)" xlink:href="#bh"/><use transform="matrix(0.0728395061728395,0,0,0.0728395061728395,95.85679012345679,0)" xlink:href="#bn"/><use transform="matrix(0.0728395061728395,0,0,0.0728395061728395,103.14074074074074,0)" xlink:href="#bb"/><use transform="matrix(0.0728395061728395,0,0,0.0728395061728395,119.0925925925926,0)" xlink:href="#bk"/><use transform="matrix(0.0728395061728395,0,0,0.0728395061728395,135.04444444444445,0)" xlink:href="#bl"/><path d="M-1.3 1.4h159.5v2.76H-1.3z"/></g><path d="M121-226c-27-7-43 5-38 36h38v33H83V0H34v-157H6v-33h28c-9-59 32-81 87-68v32" id="bo"/><g id="d"><use transform="matrix(0.0728395061728395,0,0,0.0728395061728395,0,0)" xlink:href="#bo"/><use transform="matrix(0.0728395061728395,0,0,0.0728395061728395,8.667901234567902,0)" xlink:href="#bb"/><use transform="matrix(0.0728395061728395,0,0,0.0728395061728395,24.619753086419752,0)" xlink:href="#bg"/><path d="M-1.3 1.4h52v2.76h-52z"/></g><path d="M220-157c-53 9-28 100-34 157h-49v-107c1-27-5-49-29-50C55-147 81-57 75 0H25l-1-190h47c2 12-1 28 3 38 10-53 101-56 108 0 13-22 24-43 59-42 82 1 51 116 57 194h-49v-107c-1-25-5-48-29-50" id="bp"/><path d="M195-6C206 82 75 100 31 46c-4-6-6-13-8-21l49-6c3 16 16 24 34 25 40 0 42-37 40-79-11 22-30 35-61 35-53 0-70-43-70-97 0-56 18-96 73-97 30 0 46 14 59 34l2-30h47zm-90-29c32 0 41-27 41-63 0-35-9-62-40-62-32 0-39 29-40 63 0 36 9 62 39 62" id="bq"/><g id="e"><use transform="matrix(0.0728395061728395,0,0,0.0728395061728395,0,0)" xlink:href="#bp"/><use transform="matrix(0.0728395061728395,0,0,0.0728395061728395,23.308641975308642,0)" xlink:href="#bf"/><use transform="matrix(0.0728395061728395,0,0,0.0728395061728395,37.876543209876544,0)" xlink:href="#bn"/><use transform="matrix(0.0728395061728395,0,0,0.0728395061728395,45.160493827160494,0)" xlink:href="#bk"/><use transform="matrix(0.0728395061728395,0,0,0.0728395061728395,61.11234567901234,0)" xlink:href="#bh"/><use transform="matrix(0.0728395061728395,0,0,0.0728395061728395,69.78024691358024,0)" xlink:href="#bf"/><use transform="matrix(0.0728395061728395,0,0,0.0728395061728395,84.34814814814814,0)" xlink:href="#bn"/><use transform="matrix(0.0728395061728395,0,0,0.0728395061728395,91.63209876543209,0)" xlink:href="#bk"/><use transform="matrix(0.0728395061728395,0,0,0.0728395061728395,107.58395061728395,0)" xlink:href="#bn"/><use transform="matrix(0.0728395061728395,0,0,0.0728395061728395,114.8679012345679,0)" xlink:href="#bk"/><use transform="matrix(0.0728395061728395,0,0,0.0728395061728395,130.81975308641975,0)" xlink:href="#bq"/><path d="M-1.3 1.4h156.67v2.76H-1.3z"/></g><path d="M185-48c-13 30-37 53-82 52C43 2 14-33 14-96s30-98 90-98c62 0 83 45 84 108H66c0 31 8 55 39 56 18 0 30-7 34-22zm-45-69c5-46-57-63-70-21-2 6-4 13-4 21h74" id="br"/><g id="f"><use transform="matrix(0.0728395061728395,0,0,0.0728395061728395,0,0)" xlink:href="#bh"/><use transform="matrix(0.0728395061728395,0,0,0.0728395061728395,8.667901234567902,0)" xlink:href="#be"/><use transform="matrix(0.0728395061728395,0,0,0.0728395061728395,24.619753086419752,0)" xlink:href="#br"/><path d="M-1.3 1.4h49.08v2.76h-49.1z"/></g><path d="M67-125c0 54 23 88 75 88 28 0 53-7 68-21v-34h-60v-39h108v91C232-14 192 4 140 4 58 4 20-42 15-125 8-236 126-280 215-234c19 10 29 26 37 47l-47 15c-11-23-29-39-63-39-53 1-75 33-75 86" id="bs"/><path d="M135-194c52 0 70 43 70 98 0 56-19 99-73 100-30 1-46-15-58-35L72 0H24l1-261h50v104c11-23 29-37 60-37zM114-30c31 0 40-27 40-66 0-37-7-63-39-63s-41 28-41 65c0 36 8 64 40 64" id="bt"/><g id="g"><use transform="matrix(0.0728395061728395,0,0,0.0728395061728395,0,0)" xlink:href="#bs"/><use transform="matrix(0.0728395061728395,0,0,0.0728395061728395,20.39506172839506,0)" xlink:href="#bn"/><use transform="matrix(0.0728395061728395,0,0,0.0728395061728395,27.67901234567901,0)" xlink:href="#bh"/><use transform="matrix(0.0728395061728395,0,0,0.0728395061728395,36.34691358024691,0)" xlink:href="#be"/><use transform="matrix(0.0728395061728395,0,0,0.0728395061728395,52.29876543209876,0)" xlink:href="#bn"/><use transform="matrix(0.0728395061728395,0,0,0.0728395061728395,59.582716049382704,0)" xlink:href="#bm"/><use transform="matrix(0.0728395061728395,0,0,0.0728395061728395,75.53456790123457,0)" xlink:href="#bt"/><path d="M-1.3 1.4h101.38v2.76H-1.32z"/></g><path d="M135-194c53 0 70 44 70 98 0 56-19 98-73 100-31 1-45-17-59-34 3 33 2 69 2 105H25l-1-265h48c2 10 0 23 3 31 11-24 29-35 60-35zM114-30c33 0 39-31 40-66 0-38-9-64-40-64-56 0-55 130 0 130" id="bu"/><g id="h"><use transform="matrix(0.0728395061728395,0,0,0.0728395061728395,0,0)" xlink:href="#bg"/><use transform="matrix(0.0728395061728395,0,0,0.0728395061728395,10.19753086419753,0)" xlink:href="#br"/><use transform="matrix(0.0728395061728395,0,0,0.0728395061728395,24.76543209876543,0)" xlink:href="#bu"/><use transform="matrix(0.0728395061728395,0,0,0.0728395061728395,40.717283950617286,0)" xlink:href="#bb"/><path d="M-1.3 1.4h59.28v2.76h-59.3z"/></g><path d="M206 0h-36l-40-164L89 0H53L-1-190h32L70-26l43-164h34l41 164 42-164h31" id="bv"/><path d="M33 0v-38h34V0H33" id="bw"/><path d="M24 0v-261h32V0H24" id="bx"/><path d="M84 4C-5 8 30-112 23-190h32v120c0 31 7 50 39 49 72-2 45-101 50-169h31l1 190h-30c-1-10 1-25-2-33-11 22-28 36-60 37" id="by"/><path d="M145-31C134-9 116 4 85 4 32 4 16-35 15-94c0-59 17-99 70-100 32-1 48 14 60 33 0-11-1-24 2-32h30l-1 268h-32zM93-21c41 0 51-33 51-76s-8-73-50-73c-40 0-46 35-46 75s5 74 45 74" id="bz"/><path d="M100-194c63 0 86 42 84 106H49c0 40 14 67 53 68 26 1 43-12 49-29l28 8c-11 28-37 45-77 45C44 4 14-33 15-96c1-61 26-98 85-98zm52 81c6-60-76-77-97-28-3 7-6 17-6 28h103" id="bA"/><path d="M141-36C126-15 110 5 73 4 37 3 15-17 15-53c-1-64 63-63 125-63 3-35-9-54-41-54-24 1-41 7-42 31l-33-3c5-37 33-52 76-52 45 0 72 20 72 64v82c-1 20 7 32 28 27v20c-31 9-61-2-59-35zM48-53c0 20 12 33 32 33 41-3 63-29 60-74-43 2-92-5-92 41" id="bB"/><path d="M115-194c53 0 69 39 70 98 0 66-23 100-70 100C84 3 66-7 56-30L54 0H23l1-261h32v101c10-23 28-34 59-34zm-8 174c40 0 45-34 45-75 0-40-5-75-45-74-42 0-51 32-51 76 0 43 10 73 51 73" id="bC"/><path d="M96-169c-40 0-48 33-48 73s9 75 48 75c24 0 41-14 43-38l32 2c-6 37-31 61-74 61-59 0-76-41-82-99-10-93 101-131 147-64 4 7 5 14 7 22l-32 3c-4-21-16-35-41-35" id="bD"/><path d="M100-194c62-1 85 37 85 99 1 63-27 99-86 99S16-35 15-95c0-66 28-99 85-99zM99-20c44 1 53-31 53-75 0-43-8-75-51-75s-53 32-53 75 10 74 51 75" id="bE"/><path d="M210-169c-67 3-38 105-44 169h-31v-121c0-29-5-50-35-48C34-165 62-65 56 0H25l-1-190h30c1 10-1 24 2 32 10-44 99-50 107 0 11-21 27-35 58-36 85-2 47 119 55 194h-31v-121c0-29-5-49-35-48" id="bF"/><g id="i"><use transform="matrix(0.04248971193415638,0,0,0.04248971193415638,0,0)" xlink:href="#bv"/><use transform="matrix(0.04248971193415638,0,0,0.04248971193415638,11.004835390946502,0)" xlink:href="#bv"/><use transform="matrix(0.04248971193415638,0,0,0.04248971193415638,22.009670781893004,0)" xlink:href="#bv"/><use transform="matrix(0.04248971193415638,0,0,0.04248971193415638,32.16471193415638,0)" xlink:href="#bw"/><use transform="matrix(0.04248971193415638,0,0,0.04248971193415638,36.413683127572014,0)" xlink:href="#bx"/><use transform="matrix(0.04248971193415638,0,0,0.04248971193415638,39.770370370370365,0)" xlink:href="#by"/><use transform="matrix(0.04248971193415638,0,0,0.04248971193415638,48.26831275720164,0)" xlink:href="#bz"/><use transform="matrix(0.04248971193415638,0,0,0.04248971193415638,56.76625514403292,0)" xlink:href="#by"/><use transform="matrix(0.04248971193415638,0,0,0.04248971193415638,65.2641975308642,0)" xlink:href="#bA"/><use transform="matrix(0.04248971193415638,0,0,0.04248971193415638,73.76213991769546,0)" xlink:href="#bx"/><use transform="matrix(0.04248971193415638,0,0,0.04248971193415638,77.11882716049382,0)" xlink:href="#bB"/><use transform="matrix(0.04248971193415638,0,0,0.04248971193415638,85.61676954732509,0)" xlink:href="#bC"/><use transform="matrix(0.04248971193415638,0,0,0.04248971193415638,94.11471193415636,0)" xlink:href="#bw"/><use transform="matrix(0.04248971193415638,0,0,0.04248971193415638,98.36368312757202,0)" xlink:href="#bD"/><use transform="matrix(0.04248971193415638,0,0,0.04248971193415638,106.01183127572016,0)" xlink:href="#bE"/><use transform="matrix(0.04248971193415638,0,0,0.04248971193415638,114.50977366255141,0)" xlink:href="#bF"/></g><path d="M32 76v-337h29V76H32" id="bG"/><use transform="matrix(0.04248971193415638,0,0,0.04248971193415638,0,0)" xlink:href="#bG" id="j"/><path d="M205 0l-28-72H64L36 0H1l101-248h38L239 0h-34zm-38-99l-47-123c-12 45-31 82-46 123h93" id="bH"/><path d="M115-194c55 1 70 41 70 98S169 2 115 4C84 4 66-9 55-30l1 105H24l-1-265h31l2 30c10-21 28-34 59-34zm-8 174c40 0 45-34 45-75s-6-73-45-74c-42 0-51 32-51 76 0 43 10 73 51 73" id="bI"/><path d="M114-163C36-179 61-72 57 0H25l-1-190h30c1 12-1 29 2 39 6-27 23-49 58-41v29" id="bJ"/><path d="M24-231v-30h32v30H24zM24 0v-190h32V0H24" id="bK"/><g id="k"><use transform="matrix(0.04248971193415638,0,0,0.04248971193415638,0,0)" xlink:href="#bH"/><use transform="matrix(0.04248971193415638,0,0,0.04248971193415638,10.19753086419753,0)" xlink:href="#bI"/><use transform="matrix(0.04248971193415638,0,0,0.04248971193415638,18.695473251028805,0)" xlink:href="#bJ"/><use transform="matrix(0.04248971193415638,0,0,0.04248971193415638,23.751748971193415,0)" xlink:href="#bK"/><use transform="matrix(0.04248971193415638,0,0,0.04248971193415638,27.10843621399177,0)" xlink:href="#bx"/></g><path d="M27 0v-27h64v-190l-56 39v-29l58-41h29v221h61V0H27" id="bL"/><path d="M99-251c64 0 84 50 84 122C183-37 130 33 47-8c-14-7-20-23-25-40l30-5c6 39 69 39 84 7 9-19 16-44 16-74-10 22-31 35-62 35-49 0-73-33-73-83 0-54 28-83 82-83zm-1 141c31-1 51-18 51-49 0-36-14-67-51-67-34 0-49 23-49 58 0 34 15 58 49 58" id="bM"/><path d="M68-38c1 34 0 65-14 84H32c9-13 17-26 17-46H33v-38h35" id="bN"/><g id="l"><use transform="matrix(0.04248971193415638,0,0,0.04248971193415638,0,0)" xlink:href="#bL"/><use transform="matrix(0.04248971193415638,0,0,0.04248971193415638,8.497942386831275,0)" xlink:href="#bM"/><use transform="matrix(0.04248971193415638,0,0,0.04248971193415638,16.99588477366255,0)" xlink:href="#bN"/></g><path d="M101-251c82-7 93 87 43 132L82-64C71-53 59-42 53-27h129V0H18c2-99 128-94 128-182 0-28-16-43-45-43s-46 15-49 41l-32-3c6-41 34-60 81-64" id="bO"/><path d="M101-251c68 0 85 55 85 127S166 4 100 4C33 4 14-52 14-124c0-73 17-127 87-127zm-1 229c47 0 54-49 54-102s-4-102-53-102c-51 0-55 48-55 102 0 53 5 102 54 102" id="bP"/><path d="M126-127c33 6 58 20 58 59 0 88-139 92-164 29-3-8-5-16-6-25l32-3c6 27 21 44 54 44 32 0 52-15 52-46 0-38-36-46-79-43v-28c39 1 72-4 72-42 0-27-17-43-46-43-28 0-47 15-49 41l-32-3c6-42 35-63 81-64 48-1 79 21 79 65 0 36-21 52-52 59" id="bQ"/><g id="m"><use transform="matrix(0.04248971193415638,0,0,0.04248971193415638,0,0)" xlink:href="#bO"/><use transform="matrix(0.04248971193415638,0,0,0.04248971193415638,8.497942386831275,0)" xlink:href="#bP"/><use transform="matrix(0.04248971193415638,0,0,0.04248971193415638,16.99588477366255,0)" xlink:href="#bO"/><use transform="matrix(0.04248971193415638,0,0,0.04248971193415638,25.493827160493822,0)" xlink:href="#bQ"/></g><path fill="#1f2328" d="M30 0v-248h33v221h125V0H30" id="bR"/><path fill="#1f2328" d="M141-36C126-15 110 5 73 4 37 3 15-17 15-53c-1-64 63-63 125-63 3-35-9-54-41-54-24 1-41 7-42 31l-33-3c5-37 33-52 76-52 45 0 72 20 72 64v82c-1 20 7 32 28 27v20c-31 9-61-2-59-35zM48-53c0 20 12 33 32 33 41-3 63-29 60-74-43 2-92-5-92 41" id="bS"/><path fill="#1f2328" d="M115-194c53 0 69 39 70 98 0 66-23 100-70 100C84 3 66-7 56-30L54 0H23l1-261h32v101c10-23 28-34 59-34zm-8 174c40 0 45-34 45-75 0-40-5-75-45-74-42 0-51 32-51 76 0 43 10 73 51 73" id="bT"/><g id="n"><use transform="matrix(0.06172839506172839,0,0,0.06172839506172839,0,0)" xlink:href="#bR"/><use transform="matrix(0.06172839506172839,0,0,0.06172839506172839,12.345679012345679,0)" xlink:href="#bS"/><use transform="matrix(0.06172839506172839,0,0,0.06172839506172839,24.691358024691358,0)" xlink:href="#bT"/></g><path fill="#1f2328" d="M190 0L58-211 59 0H30v-248h39L202-35l-2-213h31V0h-41" id="bU"/><path fill="#1f2328" d="M100-194c63 0 86 42 84 106H49c0 40 14 67 53 68 26 1 43-12 49-29l28 8c-11 28-37 45-77 45C44 4 14-33 15-96c1-61 26-98 85-98zm52 81c6-60-76-77-97-28-3 7-6 17-6 28h103" id="bV"/><path fill="#1f2328" d="M206 0h-36l-40-164L89 0H53L-1-190h32L70-26l43-164h34l41 164 42-164h31" id="bW"/><g id="o"><use transform="matrix(0.06172839506172839,0,0,0.06172839506172839,0,0)" xlink:href="#bU"/><use transform="matrix(0.06172839506172839,0,0,0.06172839506172839,15.987654320987653,0)" xlink:href="#bV"/><use transform="matrix(0.06172839506172839,0,0,0.06172839506172839,28.333333333333332,0)" xlink:href="#bW"/></g><path fill="#1f2328" d="M33 0v-248h34V0H33" id="bX"/><path fill="#1f2328" d="M59-47c-2 24 18 29 38 22v24C64 9 27 4 27-40v-127H5v-23h24l9-43h21v43h35v23H59v120" id="bY"/><path fill="#1f2328" d="M210-169c-67 3-38 105-44 169h-31v-121c0-29-5-50-35-48C34-165 62-65 56 0H25l-1-190h30c1 10-1 24 2 32 10-44 99-50 107 0 11-21 27-35 58-36 85-2 47 119 55 194h-31v-121c0-29-5-49-35-48" id="bZ"/><g id="p"><use transform="matrix(0.06172839506172839,0,0,0.06172839506172839,0,0)" xlink:href="#bX"/><use transform="matrix(0.06172839506172839,0,0,0.06172839506172839,6.172839506172839,0)" xlink:href="#bY"/><use transform="matrix(0.06172839506172839,0,0,0.06172839506172839,12.345679012345679,0)" xlink:href="#bV"/><use transform="matrix(0.06172839506172839,0,0,0.06172839506172839,24.691358024691358,0)" xlink:href="#bZ"/></g><path fill="#1f2328" d="M143 4C61 4 22-44 18-125c-5-107 100-154 193-111 17 8 29 25 37 43l-32 9c-13-25-37-40-76-40-61 0-88 39-88 99 0 61 29 100 91 101 35 0 62-11 79-27v-45h-74v-28h105v86C228-13 192 4 143 4" id="ca"/><path fill="#1f2328" d="M117-194c89-4 53 116 60 194h-32v-121c0-31-8-49-39-48C34-167 62-67 57 0H25l-1-190h30c1 10-1 24 2 32 11-22 29-35 61-36" id="cb"/><path fill="#1f2328" d="M114-163C36-179 61-72 57 0H25l-1-190h30c1 12-1 29 2 39 6-27 23-49 58-41v29" id="cc"/><g id="q"><use transform="matrix(0.059259259259259255,0,0,0.059259259259259255,0,0)" xlink:href="#ca"/><use transform="matrix(0.059259259259259255,0,0,0.059259259259259255,16.59259259259259,0)" xlink:href="#bV"/><use transform="matrix(0.059259259259259255,0,0,0.059259259259259255,28.444444444444443,0)" xlink:href="#cb"/><use transform="matrix(0.059259259259259255,0,0,0.059259259259259255,40.29629629629629,0)" xlink:href="#bV"/><use transform="matrix(0.059259259259259255,0,0,0.059259259259259255,52.14814814814814,0)" xlink:href="#cc"/><use transform="matrix(0.059259259259259255,0,0,0.059259259259259255,59.19999999999999,0)" xlink:href="#bS"/><use transform="matrix(0.059259259259259255,0,0,0.059259259259259255,71.05185185185184,0)" xlink:href="#bY"/><use transform="matrix(0.059259259259259255,0,0,0.059259259259259255,76.97777777777776,0)" xlink:href="#bV"/></g><path fill="#1f2328" d="M143 0L79-87 56-68V0H24v-261h32v163l83-92h37l-77 82L181 0h-38" id="cd"/><path fill="#1f2328" d="M85-194c31 0 48 13 60 33l-1-100h32l1 261h-30c-2-10 0-23-3-31C134-8 116 4 85 4 32 4 16-35 15-94c0-66 23-100 70-100zm9 24c-40 0-46 34-46 75 0 40 6 74 45 74 42 0 51-32 51-76 0-42-9-74-50-73" id="ce"/><path fill="#1f2328" d="M100-194c62-1 85 37 85 99 1 63-27 99-86 99S16-35 15-95c0-66 28-99 85-99zM99-20c44 1 53-31 53-75 0-43-8-75-51-75s-53 32-53 75 10 74 51 75" id="cf"/><g id="r"><use transform="matrix(0.059259259259259255,0,0,0.059259259259259255,0,0)" xlink:href="#bZ"/><use transform="matrix(0.059259259259259255,0,0,0.059259259259259255,17.71851851851852,0)" xlink:href="#bS"/><use transform="matrix(0.059259259259259255,0,0,0.059259259259259255,29.57037037037037,0)" xlink:href="#cc"/><use transform="matrix(0.059259259259259255,0,0,0.059259259259259255,36.62222222222222,0)" xlink:href="#cd"/><use transform="matrix(0.059259259259259255,0,0,0.059259259259259255,47.288888888888884,0)" xlink:href="#ce"/><use transform="matrix(0.059259259259259255,0,0,0.059259259259259255,59.14074074074074,0)" xlink:href="#cf"/><use transform="matrix(0.059259259259259255,0,0,0.059259259259259255,70.99259259259259,0)" xlink:href="#bW"/><use transform="matrix(0.059259259259259255,0,0,0.059259259259259255,86.34074074074073,0)" xlink:href="#cb"/></g><path fill="#1f2328" d="M141 0L90-78 38 0H4l68-98-65-92h35l48 74 47-74h35l-64 92 68 98h-35" id="cg"/><g id="s"><use transform="matrix(0.059259259259259255,0,0,0.059259259259259255,0,0)" xlink:href="#bY"/><use transform="matrix(0.059259259259259255,0,0,0.059259259259259255,5.925925925925926,0)" xlink:href="#bV"/><use transform="matrix(0.059259259259259255,0,0,0.059259259259259255,17.77777777777778,0)" xlink:href="#cg"/><use transform="matrix(0.059259259259259255,0,0,0.059259259259259255,28.444444444444443,0)" xlink:href="#bY"/></g><path fill="#1f2328" d="M232-93c-1 65-40 97-104 97C67 4 28-28 28-90v-158h33c8 89-33 224 67 224 102 0 64-133 71-224h33v155" id="ch"/><path fill="#1f2328" d="M115-194c55 1 70 41 70 98S169 2 115 4C84 4 66-9 55-30l1 105H24l-1-265h31l2 30c10-21 28-34 59-34zm-8 174c40 0 45-34 45-75s-6-73-45-74c-42 0-51 32-51 76 0 43 10 73 51 73" id="ci"/><g id="t"><use transform="matrix(0.059259259259259255,0,0,0.059259259259259255,0,0)" xlink:href="#ch"/><use transform="matrix(0.059259259259259255,0,0,0.059259259259259255,15.348148148148146,0)" xlink:href="#ci"/><use transform="matrix(0.059259259259259255,0,0,0.059259259259259255,27.199999999999996,0)" xlink:href="#ce"/><use transform="matrix(0.059259259259259255,0,0,0.059259259259259255,39.05185185185185,0)" xlink:href="#bS"/><use transform="matrix(0.059259259259259255,0,0,0.059259259259259255,50.9037037037037,0)" xlink:href="#bY"/><use transform="matrix(0.059259259259259255,0,0,0.059259259259259255,56.82962962962962,0)" xlink:href="#bV"/></g><path fill="#1f2328" d="M135-143c-3-34-86-38-87 0 15 53 115 12 119 90S17 21 10-45l28-5c4 36 97 45 98 0-10-56-113-15-118-90-4-57 82-63 122-42 12 7 21 19 24 35" id="cj"/><path fill="#1f2328" d="M96-169c-40 0-48 33-48 73s9 75 48 75c24 0 41-14 43-38l32 2c-6 37-31 61-74 61-59 0-76-41-82-99-10-93 101-131 147-64 4 7 5 14 7 22l-32 3c-4-21-16-35-41-35" id="ck"/><path fill="#1f2328" d="M24-231v-30h32v30H24zM24 0v-190h32V0H24" id="cl"/><path fill="#1f2328" d="M101-234c-31-9-42 10-38 44h38v23H63V0H32v-167H5v-23h27c-7-52 17-82 69-68v24" id="cm"/><g id="u"><use transform="matrix(0.059259259259259255,0,0,0.059259259259259255,0,0)" xlink:href="#cj"/><use transform="matrix(0.059259259259259255,0,0,0.059259259259259255,10.666666666666666,0)" xlink:href="#ci"/><use transform="matrix(0.059259259259259255,0,0,0.059259259259259255,22.51851851851852,0)" xlink:href="#bV"/><use transform="matrix(0.059259259259259255,0,0,0.059259259259259255,34.37037037037037,0)" xlink:href="#ck"/><use transform="matrix(0.059259259259259255,0,0,0.059259259259259255,45.03703703703703,0)" xlink:href="#cl"/><use transform="matrix(0.059259259259259255,0,0,0.059259259259259255,49.718518518518515,0)" xlink:href="#cm"/><use transform="matrix(0.059259259259259255,0,0,0.059259259259259255,55.64444444444444,0)" xlink:href="#cl"/><use transform="matrix(0.059259259259259255,0,0,0.059259259259259255,60.32592592592592,0)" xlink:href="#ck"/></g><path fill="#1f2328" d="M177-190C167-65 218 103 67 71c-23-6-38-20-44-43l32-5c15 47 100 32 89-28v-30C133-14 115 1 83 1 29 1 15-40 15-95c0-56 16-97 71-98 29-1 48 16 59 35 1-10 0-23 2-32h30zM94-22c36 0 50-32 50-73 0-42-14-75-50-75-39 0-46 34-46 75s6 73 46 73" id="cn"/><path fill="#1f2328" d="M0 4l72-265h28L28 4H0" id="co"/><path fill="#1f2328" d="M84 4C-5 8 30-112 23-190h32v120c0 31 7 50 39 49 72-2 45-101 50-169h31l1 190h-30c-1-10 1-25-2-33-11 22-28 36-60 37" id="cp"/><g id="v"><use transform="matrix(0.059259259259259255,0,0,0.059259259259259255,0,0)" xlink:href="#ci"/><use transform="matrix(0.059259259259259255,0,0,0.059259259259259255,11.851851851851851,0)" xlink:href="#bS"/><use transform="matrix(0.059259259259259255,0,0,0.059259259259259255,23.703703703703702,0)" xlink:href="#cn"/><use transform="matrix(0.059259259259259255,0,0,0.059259259259259255,35.55555555555556,0)" xlink:href="#bV"/><use transform="matrix(0.059259259259259255,0,0,0.059259259259259255,47.407407407407405,0)" xlink:href="#co"/><use transform="matrix(0.059259259259259255,0,0,0.059259259259259255,53.33333333333333,0)" xlink:href="#cj"/><use transform="matrix(0.059259259259259255,0,0,0.059259259259259255,63.99999999999999,0)" xlink:href="#cp"/><use transform="matrix(0.059259259259259255,0,0,0.059259259259259255,75.85185185185185,0)" xlink:href="#bT"/><use transform="matrix(0.059259259259259255,0,0,0.059259259259259255,87.7037037037037,0)" xlink:href="#ci"/><use transform="matrix(0.059259259259259255,0,0,0.059259259259259255,99.55555555555554,0)" xlink:href="#bS"/><use transform="matrix(0.059259259259259255,0,0,0.059259259259259255,111.40740740740739,0)" xlink:href="#cn"/><use transform="matrix(0.059259259259259255,0,0,0.059259259259259255,123.25925925925925,0)" xlink:href="#bV"/></g><path fill="#1f2328" d="M205 0l-28-72H64L36 0H1l101-248h38L239 0h-34zm-38-99l-47-123c-12 45-31 82-46 123h93" id="cq"/><g id="w"><use transform="matrix(0.059259259259259255,0,0,0.059259259259259255,0,0)" xlink:href="#cq"/><use transform="matrix(0.059259259259259255,0,0,0.059259259259259255,14.222222222222221,0)" xlink:href="#ce"/><use transform="matrix(0.059259259259259255,0,0,0.059259259259259255,26.074074074074073,0)" xlink:href="#ce"/></g><g id="x"><use transform="matrix(0.059259259259259255,0,0,0.059259259259259255,0,0)" xlink:href="#cb"/><use transform="matrix(0.059259259259259255,0,0,0.059259259259259255,11.851851851851851,0)" xlink:href="#bV"/><use transform="matrix(0.059259259259259255,0,0,0.059259259259259255,23.703703703703702,0)" xlink:href="#bW"/><use transform="matrix(0.059259259259259255,0,0,0.059259259259259255,39.05185185185185,0)" xlink:href="#cj"/></g><g id="y"><use transform="matrix(0.059259259259259255,0,0,0.059259259259259255,0,0)" xlink:href="#cl"/><use transform="matrix(0.059259259259259255,0,0,0.059259259259259255,4.681481481481481,0)" xlink:href="#cm"/></g><g id="z"><use transform="matrix(0.059259259259259255,0,0,0.059259259259259255,0,0)" xlink:href="#bS"/><use transform="matrix(0.059259259259259255,0,0,0.059259259259259255,11.851851851851851,0)" xlink:href="#ci"/><use transform="matrix(0.059259259259259255,0,0,0.059259259259259255,23.703703703703702,0)" xlink:href="#ci"/><use transform="matrix(0.059259259259259255,0,0,0.059259259259259255,35.55555555555556,0)" xlink:href="#cc"/><use transform="matrix(0.059259259259259255,0,0,0.059259259259259255,42.60740740740741,0)" xlink:href="#cf"/><use transform="matrix(0.059259259259259255,0,0,0.059259259259259255,54.459259259259255,0)" xlink:href="#ci"/><use transform="matrix(0.059259259259259255,0,0,0.059259259259259255,66.3111111111111,0)" xlink:href="#cc"/><use transform="matrix(0.059259259259259255,0,0,0.059259259259259255,73.36296296296295,0)" xlink:href="#cl"/><use transform="matrix(0.059259259259259255,0,0,0.059259259259259255,78.04444444444444,0)" xlink:href="#bS"/><use transform="matrix(0.059259259259259255,0,0,0.059259259259259255,89.89629629629628,0)" xlink:href="#bY"/><use transform="matrix(0.059259259259259255,0,0,0.059259259259259255,95.82222222222221,0)" xlink:href="#bV"/></g><path fill="#1f2328" d="M212-179c-10-28-35-45-73-45-59 0-87 40-87 99 0 60 29 101 89 101 43 0 62-24 78-52l27 14C228-24 195 4 139 4 59 4 22-46 18-125c-6-104 99-153 187-111 19 9 31 26 39 46" id="cr"/><g id="A"><use transform="matrix(0.05925925925925927,0,0,0.05925925925925927,0,0)" xlink:href="#cr"/><use transform="matrix(0.05925925925925927,0,0,0.05925925925925927,15.34814814814815,0)" xlink:href="#cf"/><use transform="matrix(0.05925925925925927,0,0,0.05925925925925927,27.200000000000003,0)" xlink:href="#cb"/><use transform="matrix(0.05925925925925927,0,0,0.05925925925925927,39.05185185185186,0)" xlink:href="#bY"/><use transform="matrix(0.05925925925925927,0,0,0.05925925925925927,44.97777777777778,0)" xlink:href="#cc"/><use transform="matrix(0.05925925925925927,0,0,0.05925925925925927,52.02962962962963,0)" xlink:href="#cl"/><use transform="matrix(0.05925925925925927,0,0,0.05925925925925927,56.711111111111116,0)" xlink:href="#bT"/><use transform="matrix(0.05925925925925927,0,0,0.05925925925925927,68.56296296296297,0)" xlink:href="#cp"/><use transform="matrix(0.05925925925925927,0,0,0.05925925925925927,80.41481481481482,0)" xlink:href="#bY"/><use transform="matrix(0.05925925925925927,0,0,0.05925925925925927,86.34074074074074,0)" xlink:href="#cf"/><use transform="matrix(0.05925925925925927,0,0,0.05925925925925927,98.19259259259259,0)" xlink:href="#cc"/><use transform="matrix(0.05925925925925927,0,0,0.05925925925925927,105.24444444444444,0)" xlink:href="#cj"/></g><g id="B"><use transform="matrix(0.05925925925925927,0,0,0.05925925925925927,0,0)" xlink:href="#bZ"/><use transform="matrix(0.05925925925925927,0,0,0.05925925925925927,17.718518518518522,0)" xlink:href="#cp"/><use transform="matrix(0.05925925925925927,0,0,0.05925925925925927,29.570370370370377,0)" xlink:href="#cj"/><use transform="matrix(0.05925925925925927,0,0,0.05925925925925927,40.23703703703704,0)" xlink:href="#bY"/></g><path fill="#1f2328" d="M106-169C34-169 62-67 57 0H25v-261h32l-1 103c12-21 28-36 61-36 89 0 53 116 60 194h-32v-121c2-32-8-49-39-48" id="cs"/><g id="C"><use transform="matrix(0.05925925925925927,0,0,0.05925925925925927,0,0)" xlink:href="#bV"/><use transform="matrix(0.05925925925925927,0,0,0.05925925925925927,11.851851851851853,0)" xlink:href="#cl"/><use transform="matrix(0.05925925925925927,0,0,0.05925925925925927,16.533333333333335,0)" xlink:href="#bY"/><use transform="matrix(0.05925925925925927,0,0,0.05925925925925927,22.459259259259262,0)" xlink:href="#cs"/><use transform="matrix(0.05925925925925927,0,0,0.05925925925925927,34.31111111111112,0)" xlink:href="#bV"/><use transform="matrix(0.05925925925925927,0,0,0.05925925925925927,46.16296296296297,0)" xlink:href="#cc"/></g><g id="D"><use transform="matrix(0.05925925925925927,0,0,0.05925925925925927,0,0)" xlink:href="#bW"/><use transform="matrix(0.05925925925925927,0,0,0.05925925925925927,15.34814814814815,0)" xlink:href="#cc"/><use transform="matrix(0.05925925925925927,0,0,0.05925925925925927,22.400000000000002,0)" xlink:href="#cl"/><use transform="matrix(0.05925925925925927,0,0,0.05925925925925927,27.081481481481482,0)" xlink:href="#bY"/><use transform="matrix(0.05925925925925927,0,0,0.05925925925925927,33.007407407407406,0)" xlink:href="#bV"/></g><g id="E"><use transform="matrix(0.05925925925925927,0,0,0.05925925925925927,0,0)" xlink:href="#bY"/><use transform="matrix(0.05925925925925927,0,0,0.05925925925925927,5.9259259259259265,0)" xlink:href="#cs"/><use transform="matrix(0.05925925925925927,0,0,0.05925925925925927,17.77777777777778,0)" xlink:href="#bV"/></g><g id="F"><use transform="matrix(0.05925925925925927,0,0,0.05925925925925927,0,0)" xlink:href="#bY"/><use transform="matrix(0.05925925925925927,0,0,0.05925925925925927,5.9259259259259265,0)" xlink:href="#bV"/><use transform="matrix(0.05925925925925927,0,0,0.05925925925925927,17.77777777777778,0)" xlink:href="#cg"/><use transform="matrix(0.05925925925925927,0,0,0.05925925925925927,28.444444444444446,0)" xlink:href="#bY"/></g><g id="G"><use transform="matrix(0.05925925925925927,0,0,0.05925925925925927,0,0)" xlink:href="#bS"/><use transform="matrix(0.05925925925925927,0,0,0.05925925925925927,11.851851851851853,0)" xlink:href="#cb"/><use transform="matrix(0.05925925925925927,0,0,0.05925925925925927,23.703703703703706,0)" xlink:href="#ce"/></g><path fill="#1f2328" d="M24 0v-261h32V0H24" id="ct"/><g id="H"><use transform="matrix(0.05925925925925927,0,0,0.05925925925925927,0,0)" xlink:href="#cp"/><use transform="matrix(0.05925925925925927,0,0,0.05925925925925927,11.851851851851853,0)" xlink:href="#ci"/><use transform="matrix(0.05925925925925927,0,0,0.05925925925925927,23.703703703703706,0)" xlink:href="#ct"/><use transform="matrix(0.05925925925925927,0,0,0.05925925925925927,28.385185185185186,0)" xlink:href="#cf"/><use transform="matrix(0.05925925925925927,0,0,0.05925925925925927,40.23703703703704,0)" xlink:href="#bS"/><use transform="matrix(0.05925925925925927,0,0,0.05925925925925927,52.088888888888896,0)" xlink:href="#ce"/></g><g id="I"><use transform="matrix(0.05925925925925927,0,0,0.05925925925925927,0,0)" xlink:href="#ck"/><use transform="matrix(0.05925925925925927,0,0,0.05925925925925927,10.666666666666668,0)" xlink:href="#cs"/><use transform="matrix(0.05925925925925927,0,0,0.05925925925925927,22.51851851851852,0)" xlink:href="#bS"/><use transform="matrix(0.05925925925925927,0,0,0.05925925925925927,34.370370370370374,0)" xlink:href="#cb"/><use transform="matrix(0.05925925925925927,0,0,0.05925925925925927,46.22222222222223,0)" xlink:href="#cn"/><use transform="matrix(0.05925925925925927,0,0,0.05925925925925927,58.07407407407408,0)" xlink:href="#bV"/><use transform="matrix(0.05925925925925927,0,0,0.05925925925925927,69.92592592592594,0)" xlink:href="#cj"/></g><g id="J"><use transform="matrix(0.05925925925925927,0,0,0.05925925925925927,0,0)" xlink:href="#cl"/><use transform="matrix(0.05925925925925927,0,0,0.05925925925925927,4.681481481481482,0)" xlink:href="#cb"/></g><g id="K"><use transform="matrix(0.05925925925925927,0,0,0.05925925925925927,0,0)" xlink:href="#cc"/><use transform="matrix(0.05925925925925927,0,0,0.05925925925925927,7.051851851851853,0)" xlink:href="#bV"/><use transform="matrix(0.05925925925925927,0,0,0.05925925925925927,18.903703703703705,0)" xlink:href="#ci"/><use transform="matrix(0.05925925925925927,0,0,0.05925925925925927,30.75555555555556,0)" xlink:href="#cf"/></g><g id="L"><use transform="matrix(0.05925925925925927,0,0,0.05925925925925927,0,0)" xlink:href="#cf"/><use transform="matrix(0.05925925925925927,0,0,0.05925925925925927,11.851851851851853,0)" xlink:href="#cc"/></g><g id="M"><use transform="matrix(0.05925925925925927,0,0,0.05925925925925927,0,0)" xlink:href="#cn"/><use transform="matrix(0.05925925925925927,0,0,0.05925925925925927,11.851851851851853,0)" xlink:href="#bV"/><use transform="matrix(0.05925925925925927,0,0,0.05925925925925927,23.703703703703706,0)" xlink:href="#cb"/><use transform="matrix(0.05925925925925927,0,0,0.05925925925925927,35.55555555555556,0)" xlink:href="#bV"/><use transform="matrix(0.05925925925925927,0,0,0.05925925925925927,47.40740740740741,0)" xlink:href="#cc"/><use transform="matrix(0.05925925925925927,0,0,0.05925925925925927,54.45925925925926,0)" xlink:href="#bS"/><use transform="matrix(0.05925925925925927,0,0,0.05925925925925927,66.31111111111112,0)" xlink:href="#bY"/><use transform="matrix(0.05925925925925927,0,0,0.05925925925925927,72.23703703703704,0)" xlink:href="#bV"/></g><g id="N"><use transform="matrix(0.05925925925925927,0,0,0.05925925925925927,0,0)" xlink:href="#bS"/><use transform="matrix(0.05925925925925927,0,0,0.05925925925925927,11.851851851851853,0)" xlink:href="#cb"/></g><g id="O"><use transform="matrix(0.05925925925925927,0,0,0.05925925925925927,0,0)" xlink:href="#cl"/><use transform="matrix(0.05925925925925927,0,0,0.05925925925925927,4.681481481481482,0)" xlink:href="#cj"/><use transform="matrix(0.05925925925925927,0,0,0.05925925925925927,15.34814814814815,0)" xlink:href="#cj"/><use transform="matrix(0.05925925925925927,0,0,0.05925925925925927,26.01481481481482,0)" xlink:href="#cp"/><use transform="matrix(0.05925925925925927,0,0,0.05925925925925927,37.866666666666674,0)" xlink:href="#bV"/></g><path fill="#1f2328" d="M179-190L93 31C79 59 56 82 12 73V49c39 6 53-20 64-50L1-190h34L92-34l54-156h33" id="cu"/><g id="P"><use transform="matrix(0.05925925925925927,0,0,0.05925925925925927,0,0)" xlink:href="#cc"/><use transform="matrix(0.05925925925925927,0,0,0.05925925925925927,7.051851851851853,0)" xlink:href="#bV"/><use transform="matrix(0.05925925925925927,0,0,0.05925925925925927,18.903703703703705,0)" xlink:href="#ci"/><use transform="matrix(0.05925925925925927,0,0,0.05925925925925927,30.75555555555556,0)" xlink:href="#cf"/><use transform="matrix(0.05925925925925927,0,0,0.05925925925925927,42.607407407407415,0)" xlink:href="#cj"/><use transform="matrix(0.05925925925925927,0,0,0.05925925925925927,53.27407407407408,0)" xlink:href="#cl"/><use transform="matrix(0.05925925925925927,0,0,0.05925925925925927,57.95555555555556,0)" xlink:href="#bY"/><use transform="matrix(0.05925925925925927,0,0,0.05925925925925927,63.881481481481494,0)" xlink:href="#cf"/><use transform="matrix(0.05925925925925927,0,0,0.05925925925925927,75.73333333333333,0)" xlink:href="#cc"/><use transform="matrix(0.05925925925925927,0,0,0.05925925925925927,82.78518518518518,0)" xlink:href="#cu"/></g><g id="Q"><use transform="matrix(0.05925925925925927,0,0,0.05925925925925927,0,0)" xlink:href="#bY"/><use transform="matrix(0.05925925925925927,0,0,0.05925925925925927,5.9259259259259265,0)" xlink:href="#cf"/></g><g id="R"><use transform="matrix(0.05925925925925927,0,0,0.05925925925925927,0,0)" xlink:href="#bT"/><use transform="matrix(0.05925925925925927,0,0,0.05925925925925927,11.851851851851853,0)" xlink:href="#bV"/></g><g id="S"><use transform="matrix(0.05925925925925927,0,0,0.05925925925925927,0,0)" xlink:href="#bS"/><use transform="matrix(0.05925925925925927,0,0,0.05925925925925927,11.851851851851853,0)" xlink:href="#ce"/><use transform="matrix(0.05925925925925927,0,0,0.05925925925925927,23.703703703703706,0)" xlink:href="#ce"/><use transform="matrix(0.05925925925925927,0,0,0.05925925925925927,35.55555555555556,0)" xlink:href="#cc"/><use transform="matrix(0.05925925925925927,0,0,0.05925925925925927,42.60740740740741,0)" xlink:href="#bV"/><use transform="matrix(0.05925925925925927,0,0,0.05925925925925927,54.45925925925926,0)" xlink:href="#cj"/><use transform="matrix(0.05925925925925927,0,0,0.05925925925925927,65.12592592592593,0)" xlink:href="#cj"/></g><g id="T"><use transform="matrix(0.05925925925925927,0,0,0.05925925925925927,0,0)" xlink:href="#bT"/><use transform="matrix(0.05925925925925927,0,0,0.05925925925925927,11.851851851851853,0)" xlink:href="#cu"/></g><g id="U"><use transform="matrix(0.05925925925925927,0,0,0.05925925925925927,0,0)" xlink:href="#bY"/><use transform="matrix(0.05925925925925927,0,0,0.05925925925925927,5.9259259259259265,0)" xlink:href="#cs"/><use transform="matrix(0.05925925925925927,0,0,0.05925925925925927,17.77777777777778,0)" xlink:href="#bV"/></g><g id="V"><use transform="matrix(0.05925925925925927,0,0,0.05925925925925927,0,0)" xlink:href="#ck"/><use transform="matrix(0.05925925925925927,0,0,0.05925925925925927,10.666666666666668,0)" xlink:href="#cf"/><use transform="matrix(0.05925925925925927,0,0,0.05925925925925927,22.51851851851852,0)" xlink:href="#cb"/><use transform="matrix(0.05925925925925927,0,0,0.05925925925925927,34.370370370370374,0)" xlink:href="#bY"/><use transform="matrix(0.05925925925925927,0,0,0.05925925925925927,40.2962962962963,0)" xlink:href="#cc"/><use transform="matrix(0.05925925925925927,0,0,0.05925925925925927,47.34814814814815,0)" xlink:href="#cl"/><use transform="matrix(0.05925925925925927,0,0,0.05925925925925927,52.02962962962963,0)" xlink:href="#bT"/><use transform="matrix(0.05925925925925927,0,0,0.05925925925925927,63.881481481481494,0)" xlink:href="#cp"/><use transform="matrix(0.05925925925925927,0,0,0.05925925925925927,75.73333333333333,0)" xlink:href="#bY"/><use transform="matrix(0.05925925925925927,0,0,0.05925925925925927,81.65925925925926,0)" xlink:href="#cf"/><use transform="matrix(0.05925925925925927,0,0,0.05925925925925927,93.5111111111111,0)" xlink:href="#cc"/></g><g id="W"><use transform="matrix(0.05925925925925927,0,0,0.05925925925925927,0,0)" xlink:href="#bS"/><use transform="matrix(0.05925925925925927,0,0,0.05925925925925927,11.851851851851853,0)" xlink:href="#cb"/><use transform="matrix(0.05925925925925927,0,0,0.05925925925925927,23.703703703703706,0)" xlink:href="#ce"/></g><g id="X"><use transform="matrix(0.05925925925925927,0,0,0.05925925925925927,0,0)" xlink:href="#ct"/><use transform="matrix(0.05925925925925927,0,0,0.05925925925925927,4.681481481481482,0)" xlink:href="#bS"/><use transform="matrix(0.05925925925925927,0,0,0.05925925925925927,16.533333333333335,0)" xlink:href="#bT"/></g><g id="Y"><use transform="matrix(0.05925925925925927,0,0,0.05925925925925927,0,0)" xlink:href="#bZ"/><use transform="matrix(0.05925925925925927,0,0,0.05925925925925927,17.718518518518522,0)" xlink:href="#bS"/><use transform="matrix(0.05925925925925927,0,0,0.05925925925925927,29.570370370370377,0)" xlink:href="#cb"/><use transform="matrix(0.05925925925925927,0,0,0.05925925925925927,41.42222222222223,0)" xlink:href="#bS"/><use transform="matrix(0.05925925925925927,0,0,0.05925925925925927,53.274074074074086,0)" xlink:href="#cn"/><use transform="matrix(0.05925925925925927,0,0,0.05925925925925927,65.12592592592594,0)" xlink:href="#bV"/><use transform="matrix(0.05925925925925927,0,0,0.05925925925925927,76.97777777777779,0)" xlink:href="#cc"/><use transform="matrix(0.05925925925925927,0,0,0.05925925925925927,84.02962962962964,0)" xlink:href="#co"/><use transform="matrix(0.05925925925925927,0,0,0.05925925925925927,89.95555555555556,0)" xlink:href="#bY"/><use transform="matrix(0.05925925925925927,0,0,0.05925925925925927,95.88148148148149,0)" xlink:href="#bV"/><use transform="matrix(0.05925925925925927,0,0,0.05925925925925927,107.73333333333333,0)" xlink:href="#ck"/><use transform="matrix(0.05925925925925927,0,0,0.05925925925925927,118.4,0)" xlink:href="#cs"/><use transform="matrix(0.05925925925925927,0,0,0.05925925925925927,130.25185185185185,0)" xlink:href="#cb"/><use transform="matrix(0.05925925925925927,0,0,0.05925925925925927,142.1037037037037,0)" xlink:href="#cl"/><use transform="matrix(0.05925925925925927,0,0,0.05925925925925927,146.78518518518518,0)" xlink:href="#ck"/><use transform="matrix(0.05925925925925927,0,0,0.05925925925925927,157.45185185185184,0)" xlink:href="#cl"/><use transform="matrix(0.05925925925925927,0,0,0.05925925925925927,162.13333333333333,0)" xlink:href="#bS"/><use transform="matrix(0.05925925925925927,0,0,0.05925925925925927,173.98518518518517,0)" xlink:href="#cb"/></g><g id="Z"><use transform="matrix(0.05925925925925927,0,0,0.05925925925925927,0,0)" xlink:href="#ch"/><use transform="matrix(0.05925925925925927,0,0,0.05925925925925927,15.34814814814815,0)" xlink:href="#ci"/><use transform="matrix(0.05925925925925927,0,0,0.05925925925925927,27.200000000000003,0)" xlink:href="#ce"/><use transform="matrix(0.05925925925925927,0,0,0.05925925925925927,39.05185185185186,0)" xlink:href="#bS"/><use transform="matrix(0.05925925925925927,0,0,0.05925925925925927,50.90370370370371,0)" xlink:href="#bY"/><use transform="matrix(0.05925925925925927,0,0,0.05925925925925927,56.829629629629636,0)" xlink:href="#bV"/></g><g id="aa"><use transform="matrix(0.05925925925925927,0,0,0.05925925925925927,0,0)" xlink:href="#bS"/><use transform="matrix(0.05925925925925927,0,0,0.05925925925925927,11.851851851851853,0)" xlink:href="#cb"/><use transform="matrix(0.05925925925925927,0,0,0.05925925925925927,23.703703703703706,0)" xlink:href="#cu"/></g><g id="ab"><use transform="matrix(0.05925925925925927,0,0,0.05925925925925927,0,0)" xlink:href="#cp"/><use transform="matrix(0.05925925925925927,0,0,0.05925925925925927,11.851851851851853,0)" xlink:href="#ci"/><use transform="matrix(0.05925925925925927,0,0,0.05925925925925927,23.703703703703706,0)" xlink:href="#ct"/><use transform="matrix(0.05925925925925927,0,0,0.05925925925925927,28.385185185185186,0)" xlink:href="#cf"/><use transform="matrix(0.05925925925925927,0,0,0.05925925925925927,40.23703703703704,0)" xlink:href="#bS"/><use transform="matrix(0.05925925925925927,0,0,0.05925925925925927,52.088888888888896,0)" xlink:href="#ce"/><use transform="matrix(0.05925925925925927,0,0,0.05925925925925927,63.94074074074075,0)" xlink:href="#bV"/><use transform="matrix(0.05925925925925927,0,0,0.05925925925925927,75.7925925925926,0)" xlink:href="#ce"/></g><g id="ac"><use transform="matrix(0.05925925925925927,0,0,0.05925925925925927,0,0)" xlink:href="#cc"/><use transform="matrix(0.05925925925925927,0,0,0.05925925925925927,7.051851851851853,0)" xlink:href="#bV"/><use transform="matrix(0.05925925925925927,0,0,0.05925925925925927,18.903703703703705,0)" xlink:href="#ci"/><use transform="matrix(0.05925925925925927,0,0,0.05925925925925927,30.75555555555556,0)" xlink:href="#cf"/><use transform="matrix(0.05925925925925927,0,0,0.05925925925925927,42.607407407407415,0)" xlink:href="#cj"/><use transform="matrix(0.05925925925925927,0,0,0.05925925925925927,53.27407407407408,0)" xlink:href="#cl"/><use transform="matrix(0.05925925925925927,0,0,0.05925925925925927,57.95555555555556,0)" xlink:href="#bY"/><use transform="matrix(0.05925925925925927,0,0,0.05925925925925927,63.881481481481494,0)" xlink:href="#cf"/><use transform="matrix(0.05925925925925927,0,0,0.05925925925925927,75.73333333333333,0)" xlink:href="#cc"/><use transform="matrix(0.05925925925925927,0,0,0.05925925925925927,82.78518518518518,0)" xlink:href="#cu"/></g><g id="ad"><use transform="matrix(0.05925925925925927,0,0,0.05925925925925927,0,0)" xlink:href="#bS"/><use transform="matrix(0.05925925925925927,0,0,0.05925925925925927,11.851851851851853,0)" xlink:href="#cj"/><use transform="matrix(0.05925925925925927,0,0,0.05925925925925927,22.51851851851852,0)" xlink:href="#cj"/><use transform="matrix(0.05925925925925927,0,0,0.05925925925925927,33.18518518518519,0)" xlink:href="#cf"/><use transform="matrix(0.05925925925925927,0,0,0.05925925925925927,45.037037037037045,0)" xlink:href="#ck"/><use transform="matrix(0.05925925925925927,0,0,0.05925925925925927,55.70370370370371,0)" xlink:href="#cl"/><use transform="matrix(0.05925925925925927,0,0,0.05925925925925927,60.38518518518519,0)" xlink:href="#bS"/><use transform="matrix(0.05925925925925927,0,0,0.05925925925925927,72.23703703703704,0)" xlink:href="#bY"/><use transform="matrix(0.05925925925925927,0,0,0.05925925925925927,78.16296296296296,0)" xlink:href="#bV"/><use transform="matrix(0.05925925925925927,0,0,0.05925925925925927,90.01481481481481,0)" xlink:href="#ce"/></g><path fill="#1f2328" d="M87 75C49 33 22-17 22-94c0-76 28-126 65-167h31c-38 41-64 92-64 168S80 34 118 75H87" id="cv"/><path fill="#1f2328" d="M33-261c38 41 65 92 65 168S71 34 33 75H2C39 34 66-17 66-93S39-220 2-261h31" id="cw"/><g id="ae"><use transform="matrix(0.05925925925925927,0,0,0.05925925925925927,0,0)" xlink:href="#bW"/><use transform="matrix(0.05925925925925927,0,0,0.05925925925925927,15.34814814814815,0)" xlink:href="#bV"/><use transform="matrix(0.05925925925925927,0,0,0.05925925925925927,27.200000000000003,0)" xlink:href="#bT"/><use transform="matrix(0.05925925925925927,0,0,0.05925925925925927,39.05185185185186,0)" xlink:href="#cj"/><use transform="matrix(0.05925925925925927,0,0,0.05925925925925927,49.71851851851852,0)" xlink:href="#cl"/><use transform="matrix(0.05925925925925927,0,0,0.05925925925925927,54.400000000000006,0)" xlink:href="#bY"/><use transform="matrix(0.05925925925925927,0,0,0.05925925925925927,60.32592592592593,0)" xlink:href="#bV"/><use transform="matrix(0.05925925925925927,0,0,0.05925925925925927,72.17777777777778,0)" xlink:href="#cv"/><use transform="matrix(0.05925925925925927,0,0,0.05925925925925927,79.22962962962963,0)" xlink:href="#cj"/><use transform="matrix(0.05925925925925927,0,0,0.05925925925925927,89.8962962962963,0)" xlink:href="#cw"/></g><g id="af"><use transform="matrix(0.05925925925925927,0,0,0.05925925925925927,0,0)" xlink:href="#cf"/><use transform="matrix(0.05925925925925927,0,0,0.05925925925925927,11.851851851851853,0)" xlink:href="#cb"/><use transform="matrix(0.05925925925925927,0,0,0.05925925925925927,23.703703703703706,0)" xlink:href="#ck"/><use transform="matrix(0.05925925925925927,0,0,0.05925925925925927,34.370370370370374,0)" xlink:href="#bV"/></g><use transform="matrix(0.05925925925925927,0,0,0.05925925925925927,0,0)" xlink:href="#bS" id="ag"/><path fill="#1f2328" d="M33-154v-36h34v36H33zM33 0v-36h34V0H33" id="cx"/><g id="ah"><use transform="matrix(0.05925925925925927,0,0,0.05925925925925927,0,0)" xlink:href="#bZ"/><use transform="matrix(0.05925925925925927,0,0,0.05925925925925927,17.718518518518522,0)" xlink:href="#cf"/><use transform="matrix(0.05925925925925927,0,0,0.05925925925925927,29.570370370370377,0)" xlink:href="#cb"/><use transform="matrix(0.05925925925925927,0,0,0.05925925925925927,41.42222222222223,0)" xlink:href="#bY"/><use transform="matrix(0.05925925925925927,0,0,0.05925925925925927,47.348148148148155,0)" xlink:href="#cs"/><use transform="matrix(0.05925925925925927,0,0,0.05925925925925927,59.20000000000001,0)" xlink:href="#cx"/></g><path fill="#1f2328" d="M127-220V0H93v-220H8v-28h204v28h-85" id="cy"/><g id="ai"><use transform="matrix(0.05925925925925927,0,0,0.05925925925925927,0,0)" xlink:href="#cy"/><use transform="matrix(0.05925925925925927,0,0,0.05925925925925927,12.97777777777778,0)" xlink:href="#cs"/><use transform="matrix(0.05925925925925927,0,0,0.05925925925925927,24.829629629629633,0)" xlink:href="#bV"/></g><g id="aj"><use transform="matrix(0.05925925925925927,0,0,0.05925925925925927,0,0)" xlink:href="#cm"/><use transform="matrix(0.05925925925925927,0,0,0.05925925925925927,5.9259259259259265,0)" xlink:href="#cl"/><use transform="matrix(0.05925925925925927,0,0,0.05925925925925927,10.607407407407408,0)" xlink:href="#cc"/><use transform="matrix(0.05925925925925927,0,0,0.05925925925925927,17.65925925925926,0)" xlink:href="#cj"/><use transform="matrix(0.05925925925925927,0,0,0.05925925925925927,28.32592592592593,0)" xlink:href="#bY"/></g><g id="ak"><use transform="matrix(0.05925925925925927,0,0,0.05925925925925927,0,0)" xlink:href="#ce"/><use transform="matrix(0.05925925925925927,0,0,0.05925925925925927,11.851851851851853,0)" xlink:href="#bS"/><use transform="matrix(0.05925925925925927,0,0,0.05925925925925927,23.703703703703706,0)" xlink:href="#cu"/></g><g id="al"><use transform="matrix(0.05925925925925927,0,0,0.05925925925925927,0,0)" xlink:href="#cf"/><use transform="matrix(0.05925925925925927,0,0,0.05925925925925927,11.851851851851853,0)" xlink:href="#cm"/></g><g id="am"><use transform="matrix(0.05925925925925927,0,0,0.05925925925925927,0,0)" xlink:href="#bZ"/><use transform="matrix(0.05925925925925927,0,0,0.05925925925925927,17.718518518518522,0)" xlink:href="#cf"/><use transform="matrix(0.05925925925925927,0,0,0.05925925925925927,29.570370370370377,0)" xlink:href="#cb"/><use transform="matrix(0.05925925925925927,0,0,0.05925925925925927,41.42222222222223,0)" xlink:href="#bY"/><use transform="matrix(0.05925925925925927,0,0,0.05925925925925927,47.348148148148155,0)" xlink:href="#cs"/></g><g id="an"><use transform="matrix(0.05925925925925927,0,0,0.05925925925925927,0,0)" xlink:href="#cv"/><use transform="matrix(0.05925925925925927,0,0,0.05925925925925927,7.051851851851853,0)" xlink:href="#cf"/><use transform="matrix(0.05925925925925927,0,0,0.05925925925925927,18.903703703703705,0)" xlink:href="#cc"/></g><g id="ao"><use transform="matrix(0.05925925925925927,0,0,0.05925925925925927,0,0)" xlink:href="#bW"/><use transform="matrix(0.05925925925925927,0,0,0.05925925925925927,15.34814814814815,0)" xlink:href="#cf"/><use transform="matrix(0.05925925925925927,0,0,0.05925925925925927,27.200000000000003,0)" xlink:href="#cc"/><use transform="matrix(0.05925925925925927,0,0,0.05925925925925927,34.25185185185185,0)" xlink:href="#cd"/><use transform="matrix(0.05925925925925927,0,0,0.05925925925925927,44.918518518518525,0)" xlink:href="#cl"/><use transform="matrix(0.05925925925925927,0,0,0.05925925925925927,49.60000000000001,0)" xlink:href="#cb"/><use transform="matrix(0.05925925925925927,0,0,0.05925925925925927,61.45185185185186,0)" xlink:href="#cn"/></g><g id="ap"><use transform="matrix(0.05925925925925927,0,0,0.05925925925925927,0,0)" xlink:href="#ce"/><use transform="matrix(0.05925925925925927,0,0,0.05925925925925927,11.851851851851853,0)" xlink:href="#bS"/><use transform="matrix(0.05925925925925927,0,0,0.05925925925925927,23.703703703703706,0)" xlink:href="#cu"/></g><g id="aq"><use transform="matrix(0.05925925925925927,0,0,0.05925925925925927,0,0)" xlink:href="#ci"/><use transform="matrix(0.05925925925925927,0,0,0.05925925925925927,11.851851851851853,0)" xlink:href="#cf"/><use transform="matrix(0.05925925925925927,0,0,0.05925925925925927,23.703703703703706,0)" xlink:href="#cj"/><use transform="matrix(0.05925925925925927,0,0,0.05925925925925927,34.370370370370374,0)" xlink:href="#cj"/><use transform="matrix(0.05925925925925927,0,0,0.05925925925925927,45.03703703703704,0)" xlink:href="#cl"/><use transform="matrix(0.05925925925925927,0,0,0.05925925925925927,49.71851851851852,0)" xlink:href="#bT"/><use transform="matrix(0.05925925925925927,0,0,0.05925925925925927,61.57037037037038,0)" xlink:href="#ct"/><use transform="matrix(0.05925925925925927,0,0,0.05925925925925927,66.25185185185185,0)" xlink:href="#bV"/><use transform="matrix(0.05925925925925927,0,0,0.05925925925925927,78.1037037037037,0)" xlink:href="#cw"/></g><path fill="#1f2328" d="M233-177c-1 41-23 64-60 70L243 0h-38l-65-103H63V0H30v-248c88 3 205-21 203 71zM63-129c60-2 137 13 137-47 0-61-80-42-137-45v92" id="cz"/><path fill="#1f2328" d="M108 0H70L1-190h34L89-25l56-165h34" id="cA"/><g id="ar"><use transform="matrix(0.05925925925925927,0,0,0.05925925925925927,0,0)" xlink:href="#cz"/><use transform="matrix(0.05925925925925927,0,0,0.05925925925925927,15.34814814814815,0)" xlink:href="#bV"/><use transform="matrix(0.05925925925925927,0,0,0.05925925925925927,27.200000000000003,0)" xlink:href="#cA"/><use transform="matrix(0.05925925925925927,0,0,0.05925925925925927,37.866666666666674,0)" xlink:href="#cl"/><use transform="matrix(0.05925925925925927,0,0,0.05925925925925927,42.54814814814816,0)" xlink:href="#bV"/><use transform="matrix(0.05925925925925927,0,0,0.05925925925925927,54.40000000000001,0)" xlink:href="#bW"/></g><g id="as"><use transform="matrix(0.05925925925925927,0,0,0.05925925925925927,0,0)" xlink:href="#ck"/><use transform="matrix(0.05925925925925927,0,0,0.05925925925925927,10.666666666666668,0)" xlink:href="#cf"/><use transform="matrix(0.05925925925925927,0,0,0.05925925925925927,22.51851851851852,0)" xlink:href="#cb"/><use transform="matrix(0.05925925925925927,0,0,0.05925925925925927,34.370370370370374,0)" xlink:href="#bY"/><use transform="matrix(0.05925925925925927,0,0,0.05925925925925927,40.2962962962963,0)" xlink:href="#bV"/><use transform="matrix(0.05925925925925927,0,0,0.05925925925925927,52.14814814814815,0)" xlink:href="#cb"/><use transform="matrix(0.05925925925925927,0,0,0.05925925925925927,64,0)" xlink:href="#bY"/></g><g id="at"><use transform="matrix(0.05925925925925927,0,0,0.05925925925925927,0,0)" xlink:href="#ct"/><use transform="matrix(0.05925925925925927,0,0,0.05925925925925927,4.681481481481482,0)" xlink:href="#bS"/><use transform="matrix(0.05925925925925927,0,0,0.05925925925925927,16.533333333333335,0)" xlink:href="#bT"/></g><path fill="#1f2328" d="M145-31C134-9 116 4 85 4 32 4 16-35 15-94c0-59 17-99 70-100 32-1 48 14 60 33 0-11-1-24 2-32h30l-1 268h-32zM93-21c41 0 51-33 51-76s-8-73-50-73c-40 0-46 35-46 75s5 74 45 74" id="cB"/><path fill="#1f2328" d="M68-38c1 34 0 65-14 84H32c9-13 17-26 17-46H33v-38h35" id="cC"/><g id="au"><use transform="matrix(0.05925925925925927,0,0,0.05925925925925927,0,0)" xlink:href="#cB"/><use transform="matrix(0.05925925925925927,0,0,0.05925925925925927,11.851851851851853,0)" xlink:href="#cp"/><use transform="matrix(0.05925925925925927,0,0,0.05925925925925927,23.703703703703706,0)" xlink:href="#bS"/><use transform="matrix(0.05925925925925927,0,0,0.05925925925925927,35.55555555555556,0)" xlink:href="#cc"/><use transform="matrix(0.05925925925925927,0,0,0.05925925925925927,42.60740740740741,0)" xlink:href="#bY"/><use transform="matrix(0.05925925925925927,0,0,0.05925925925925927,48.53333333333333,0)" xlink:href="#bV"/><use transform="matrix(0.05925925925925927,0,0,0.05925925925925927,60.385185185185186,0)" xlink:href="#cc"/><use transform="matrix(0.05925925925925927,0,0,0.05925925925925927,66.25185185185185,0)" xlink:href="#cC"/></g><g id="av"><use transform="matrix(0.05925925925925927,0,0,0.05925925925925927,0,0)" xlink:href="#ce"/><use transform="matrix(0.05925925925925927,0,0,0.05925925925925927,11.851851851851853,0)" xlink:href="#cp"/><use transform="matrix(0.05925925925925927,0,0,0.05925925925925927,23.703703703703706,0)" xlink:href="#cc"/><use transform="matrix(0.05925925925925927,0,0,0.05925925925925927,30.75555555555556,0)" xlink:href="#cl"/><use transform="matrix(0.05925925925925927,0,0,0.05925925925925927,35.437037037037044,0)" xlink:href="#cb"/><use transform="matrix(0.05925925925925927,0,0,0.05925925925925927,47.2888888888889,0)" xlink:href="#cn"/></g><g id="aw"><use transform="matrix(0.05925925925925927,0,0,0.05925925925925927,0,0)" xlink:href="#ce"/><use transform="matrix(0.05925925925925927,0,0,0.05925925925925927,11.851851851851853,0)" xlink:href="#bS"/><use transform="matrix(0.05925925925925927,0,0,0.05925925925925927,23.703703703703706,0)" xlink:href="#cu"/><use transform="matrix(0.05925925925925927,0,0,0.05925925925925927,34.370370370370374,0)" xlink:href="#cj"/></g><g id="ax"><use transform="matrix(0.05925925925925927,0,0,0.05925925925925927,0,0)" xlink:href="#ce"/><use transform="matrix(0.05925925925925927,0,0,0.05925925925925927,11.851851851851853,0)" xlink:href="#bS"/><use transform="matrix(0.05925925925925927,0,0,0.05925925925925927,23.703703703703706,0)" xlink:href="#bY"/><use transform="matrix(0.05925925925925927,0,0,0.05925925925925927,29.629629629629633,0)" xlink:href="#bS"/></g><g id="ay"><use transform="matrix(0.05925925925925927,0,0,0.05925925925925927,0,0)" xlink:href="#bZ"/><use transform="matrix(0.05925925925925927,0,0,0.05925925925925927,17.718518518518522,0)" xlink:href="#bS"/><use transform="matrix(0.05925925925925927,0,0,0.05925925925925927,29.570370370370377,0)" xlink:href="#cb"/><use transform="matrix(0.05925925925925927,0,0,0.05925925925925927,41.42222222222223,0)" xlink:href="#bS"/><use transform="matrix(0.05925925925925927,0,0,0.05925925925925927,53.274074074074086,0)" xlink:href="#cn"/><use transform="matrix(0.05925925925925927,0,0,0.05925925925925927,65.12592592592594,0)" xlink:href="#bV"/><use transform="matrix(0.05925925925925927,0,0,0.05925925925925927,76.97777777777779,0)" xlink:href="#bZ"/><use transform="matrix(0.05925925925925927,0,0,0.05925925925925927,94.69629629629631,0)" xlink:href="#bV"/><use transform="matrix(0.05925925925925927,0,0,0.05925925925925927,106.54814814814816,0)" xlink:href="#cb"/><use transform="matrix(0.05925925925925927,0,0,0.05925925925925927,118.4,0)" xlink:href="#bY"/></g><g id="az"><use transform="matrix(0.05925925925925927,0,0,0.05925925925925927,0,0)" xlink:href="#cf"/><use transform="matrix(0.05925925925925927,0,0,0.05925925925925927,11.851851851851853,0)" xlink:href="#cA"/><use transform="matrix(0.05925925925925927,0,0,0.05925925925925927,22.51851851851852,0)" xlink:href="#bV"/><use transform="matrix(0.05925925925925927,0,0,0.05925925925925927,34.370370370370374,0)" xlink:href="#cc"/><use transform="matrix(0.05925925925925927,0,0,0.05925925925925927,41.422222222222224,0)" xlink:href="#cA"/><use transform="matrix(0.05925925925925927,0,0,0.05925925925925927,52.08888888888889,0)" xlink:href="#cl"/><use transform="matrix(0.05925925925925927,0,0,0.05925925925925927,56.77037037037037,0)" xlink:href="#bV"/><use transform="matrix(0.05925925925925927,0,0,0.05925925925925927,68.62222222222222,0)" xlink:href="#bW"/></g><path fill="#1f2328" d="M62-168c30 0 50 19 50 48S92-70 62-70c-29 0-48-21-48-50s20-48 48-48" id="cD"/><use transform="matrix(0.05925925925925927,0,0,0.05925925925925927,0,0)" xlink:href="#cD" id="aA"/><g id="aB"><use transform="matrix(0.05925925925925927,0,0,0.05925925925925927,0,0)" xlink:href="#bU"/><use transform="matrix(0.05925925925925927,0,0,0.05925925925925927,15.34814814814815,0)" xlink:href="#bV"/><use transform="matrix(0.05925925925925927,0,0,0.05925925925925927,27.200000000000003,0)" xlink:href="#bW"/></g><g id="aC"><use transform="matrix(0.05925925925925927,0,0,0.05925925925925927,0,0)" xlink:href="#cj"/><use transform="matrix(0.05925925925925927,0,0,0.05925925925925927,10.666666666666668,0)" xlink:href="#cp"/><use transform="matrix(0.05925925925925927,0,0,0.05925925925925927,22.51851851851852,0)" xlink:href="#bT"/><use transform="matrix(0.05925925925925927,0,0,0.05925925925925927,34.370370370370374,0)" xlink:href="#bZ"/><use transform="matrix(0.05925925925925927,0,0,0.05925925925925927,52.088888888888896,0)" xlink:href="#cl"/><use transform="matrix(0.05925925925925927,0,0,0.05925925925925927,56.77037037037038,0)" xlink:href="#cj"/><use transform="matrix(0.05925925925925927,0,0,0.05925925925925927,67.43703703703704,0)" xlink:href="#cj"/><use transform="matrix(0.05925925925925927,0,0,0.05925925925925927,78.10370370370372,0)" xlink:href="#cl"/><use transform="matrix(0.05925925925925927,0,0,0.05925925925925927,82.7851851851852,0)" xlink:href="#cf"/><use transform="matrix(0.05925925925925927,0,0,0.05925925925925927,94.63703703703705,0)" xlink:href="#cb"/></g><g id="aD"><use transform="matrix(0.05925925925925927,0,0,0.05925925925925927,0,0)" xlink:href="#cv"/><use transform="matrix(0.05925925925925927,0,0,0.05925925925925927,7.051851851851853,0)" xlink:href="#ci"/><use transform="matrix(0.05925925925925927,0,0,0.05925925925925927,18.903703703703705,0)" xlink:href="#bS"/><use transform="matrix(0.05925925925925927,0,0,0.05925925925925927,30.75555555555556,0)" xlink:href="#ci"/><use transform="matrix(0.05925925925925927,0,0,0.05925925925925927,42.607407407407415,0)" xlink:href="#bV"/><use transform="matrix(0.05925925925925927,0,0,0.05925925925925927,54.45925925925927,0)" xlink:href="#cc"/><use transform="matrix(0.05925925925925927,0,0,0.05925925925925927,61.51111111111112,0)" xlink:href="#co"/><use transform="matrix(0.05925925925925927,0,0,0.05925925925925927,67.43703703703704,0)" xlink:href="#cn"/><use transform="matrix(0.05925925925925927,0,0,0.05925925925925927,79.28888888888889,0)" xlink:href="#cc"/><use transform="matrix(0.05925925925925927,0,0,0.05925925925925927,86.34074074074074,0)" xlink:href="#bS"/><use transform="matrix(0.05925925925925927,0,0,0.05925925925925927,98.19259259259259,0)" xlink:href="#cb"/><use transform="matrix(0.05925925925925927,0,0,0.05925925925925927,110.04444444444444,0)" xlink:href="#bY"/><use transform="matrix(0.05925925925925927,0,0,0.05925925925925927,115.97037037037036,0)" xlink:href="#cw"/></g><path fill="#1f2328" d="M30-248c87 1 191-15 191 75 0 78-77 80-158 76V0H30v-248zm33 125c57 0 124 11 124-50 0-59-68-47-124-48v98" id="cE"/><g id="aE"><use transform="matrix(0.05925925925925927,0,0,0.05925925925925927,0,0)" xlink:href="#cE"/><use transform="matrix(0.05925925925925927,0,0,0.05925925925925927,14.222222222222225,0)" xlink:href="#cp"/><use transform="matrix(0.05925925925925927,0,0,0.05925925925925927,26.074074074074076,0)" xlink:href="#bT"/><use transform="matrix(0.05925925925925927,0,0,0.05925925925925927,37.92592592592593,0)" xlink:href="#ct"/><use transform="matrix(0.05925925925925927,0,0,0.05925925925925927,42.607407407407415,0)" xlink:href="#cl"/><use transform="matrix(0.05925925925925927,0,0,0.05925925925925927,47.2888888888889,0)" xlink:href="#ck"/><use transform="matrix(0.05925925925925927,0,0,0.05925925925925927,57.95555555555556,0)" xlink:href="#bS"/><use transform="matrix(0.05925925925925927,0,0,0.05925925925925927,69.80740740740741,0)" xlink:href="#bY"/><use transform="matrix(0.05925925925925927,0,0,0.05925925925925927,75.73333333333333,0)" xlink:href="#cl"/><use transform="matrix(0.05925925925925927,0,0,0.05925925925925927,80.41481481481482,0)" xlink:href="#cf"/><use transform="matrix(0.05925925925925927,0,0,0.05925925925925927,92.26666666666667,0)" xlink:href="#cb"/></g><g id="aF"><use transform="matrix(0.05925925925925927,0,0,0.05925925925925927,0,0)" xlink:href="#cq"/><use transform="matrix(0.05925925925925927,0,0,0.05925925925925927,13.80740740740741,0)" xlink:href="#bW"/><use transform="matrix(0.05925925925925927,0,0,0.05925925925925927,29.15555555555556,0)" xlink:href="#bS"/><use transform="matrix(0.05925925925925927,0,0,0.05925925925925927,41.00740740740741,0)" xlink:href="#cc"/><use transform="matrix(0.05925925925925927,0,0,0.05925925925925927,48.059259259259264,0)" xlink:href="#ce"/><use transform="matrix(0.05925925925925927,0,0,0.05925925925925927,59.91111111111112,0)" xlink:href="#cj"/></g><g id="aG"><use transform="matrix(0.05925925925925927,0,0,0.05925925925925927,0,0)" xlink:href="#cE"/><use transform="matrix(0.05925925925925927,0,0,0.05925925925925927,14.222222222222225,0)" xlink:href="#cc"/><use transform="matrix(0.05925925925925927,0,0,0.05925925925925927,21.27407407407408,0)" xlink:href="#bV"/><use transform="matrix(0.05925925925925927,0,0,0.05925925925925927,33.125925925925934,0)" xlink:href="#cj"/><use transform="matrix(0.05925925925925927,0,0,0.05925925925925927,43.7925925925926,0)" xlink:href="#bV"/><use transform="matrix(0.05925925925925927,0,0,0.05925925925925927,55.64444444444445,0)" xlink:href="#cb"/><use transform="matrix(0.05925925925925927,0,0,0.05925925925925927,67.49629629629631,0)" xlink:href="#bY"/><use transform="matrix(0.05925925925925927,0,0,0.05925925925925927,73.42222222222223,0)" xlink:href="#bS"/><use transform="matrix(0.05925925925925927,0,0,0.05925925925925927,85.27407407407408,0)" xlink:href="#bY"/><use transform="matrix(0.05925925925925927,0,0,0.05925925925925927,91.2,0)" xlink:href="#cl"/><use transform="matrix(0.05925925925925927,0,0,0.05925925925925927,95.88148148148149,0)" xlink:href="#cf"/><use transform="matrix(0.05925925925925927,0,0,0.05925925925925927,107.73333333333333,0)" xlink:href="#cb"/><use transform="matrix(0.05925925925925927,0,0,0.05925925925925927,119.58518518518518,0)" xlink:href="#cj"/></g><path fill="#1f2328" d="M185-189c-5-48-123-54-124 2 14 75 158 14 163 119 3 78-121 87-175 55-17-10-28-26-33-46l33-7c5 56 141 63 141-1 0-78-155-14-162-118-5-82 145-84 179-34 5 7 8 16 11 25" id="cF"/><g id="aH"><use transform="matrix(0.05925925925925927,0,0,0.05925925925925927,0,0)" xlink:href="#cF"/><use transform="matrix(0.05925925925925927,0,0,0.05925925925925927,14.222222222222225,0)" xlink:href="#cf"/><use transform="matrix(0.05925925925925927,0,0,0.05925925925925927,26.074074074074076,0)" xlink:href="#cm"/><use transform="matrix(0.05925925925925927,0,0,0.05925925925925927,32,0)" xlink:href="#bY"/><use transform="matrix(0.05925925925925927,0,0,0.05925925925925927,37.925925925925924,0)" xlink:href="#bW"/><use transform="matrix(0.05925925925925927,0,0,0.05925925925925927,53.27407407407407,0)" xlink:href="#bS"/><use transform="matrix(0.05925925925925927,0,0,0.05925925925925927,65.12592592592593,0)" xlink:href="#cc"/><use transform="matrix(0.05925925925925927,0,0,0.05925925925925927,72.17777777777778,0)" xlink:href="#bV"/><use transform="matrix(0.05925925925925927,0,0,0.05925925925925927,84.02962962962962,0)" xlink:href="#co"/></g><g id="aI"><use transform="matrix(0.05925925925925927,0,0,0.05925925925925927,0,0)" xlink:href="#cc"/><use transform="matrix(0.05925925925925927,0,0,0.05925925925925927,7.051851851851853,0)" xlink:href="#bV"/><use transform="matrix(0.05925925925925927,0,0,0.05925925925925927,18.903703703703705,0)" xlink:href="#ct"/><use transform="matrix(0.05925925925925927,0,0,0.05925925925925927,23.58518518518519,0)" xlink:href="#bV"/><use transform="matrix(0.05925925925925927,0,0,0.05925925925925927,35.437037037037044,0)" xlink:href="#bS"/><use transform="matrix(0.05925925925925927,0,0,0.05925925925925927,47.2888888888889,0)" xlink:href="#cj"/><use transform="matrix(0.05925925925925927,0,0,0.05925925925925927,57.95555555555556,0)" xlink:href="#bV"/></g><path fill="#1f2328" d="M30 0v-248h187v28H63v79h144v27H63v87h162V0H30" id="cG"/><g id="aJ"><use transform="matrix(0.05925925925925927,0,0,0.05925925925925927,0,0)" xlink:href="#cG"/><use transform="matrix(0.05925925925925927,0,0,0.05925925925925927,14.222222222222225,0)" xlink:href="#cA"/><use transform="matrix(0.05925925925925927,0,0,0.05925925925925927,24.888888888888893,0)" xlink:href="#bV"/><use transform="matrix(0.05925925925925927,0,0,0.05925925925925927,36.74074074074075,0)" xlink:href="#cb"/><use transform="matrix(0.05925925925925927,0,0,0.05925925925925927,48.5925925925926,0)" xlink:href="#bY"/><use transform="matrix(0.05925925925925927,0,0,0.05925925925925927,54.518518518518526,0)" xlink:href="#cj"/></g><path fill="#3a414a" d="M232-93c-1 65-40 97-104 97C67 4 28-28 28-90v-158h33c8 89-33 224 67 224 102 0 64-133 71-224h33v155" id="cH"/><path fill="#3a414a" d="M115-194c55 1 70 41 70 98S169 2 115 4C84 4 66-9 55-30l1 105H24l-1-265h31l2 30c10-21 28-34 59-34zm-8 174c40 0 45-34 45-75s-6-73-45-74c-42 0-51 32-51 76 0 43 10 73 51 73" id="cI"/><path fill="#3a414a" d="M85-194c31 0 48 13 60 33l-1-100h32l1 261h-30c-2-10 0-23-3-31C134-8 116 4 85 4 32 4 16-35 15-94c0-66 23-100 70-100zm9 24c-40 0-46 34-46 75 0 40 6 74 45 74 42 0 51-32 51-76 0-42-9-74-50-73" id="cJ"/><path fill="#3a414a" d="M100-194c63 0 86 42 84 106H49c0 40 14 67 53 68 26 1 43-12 49-29l28 8c-11 28-37 45-77 45C44 4 14-33 15-96c1-61 26-98 85-98zm52 81c6-60-76-77-97-28-3 7-6 17-6 28h103" id="cK"/><g id="aK"><use transform="matrix(0.06172839506172839,0,0,0.06172839506172839,0,0)" xlink:href="#cH"/><use transform="matrix(0.06172839506172839,0,0,0.06172839506172839,15.987654320987653,0)" xlink:href="#cI"/><use transform="matrix(0.06172839506172839,0,0,0.06172839506172839,28.333333333333332,0)" xlink:href="#cJ"/><use transform="matrix(0.06172839506172839,0,0,0.06172839506172839,40.67901234567901,0)" xlink:href="#aX"/><use transform="matrix(0.06172839506172839,0,0,0.06172839506172839,53.02469135802469,0)" xlink:href="#aW"/><use transform="matrix(0.06172839506172839,0,0,0.06172839506172839,59.19753086419753,0)" xlink:href="#cK"/></g><path fill="#3a414a" d="M143 4C61 4 22-44 18-125c-5-107 100-154 193-111 17 8 29 25 37 43l-32 9c-13-25-37-40-76-40-61 0-88 39-88 99 0 61 29 100 91 101 35 0 62-11 79-27v-45h-74v-28h105v86C228-13 192 4 143 4" id="cL"/><path fill="#3a414a" d="M24-231v-30h32v30H24zM24 0v-190h32V0H24" id="cM"/><path fill="#3a414a" d="M106-169C34-169 62-67 57 0H25v-261h32l-1 103c12-21 28-36 61-36 89 0 53 116 60 194h-32v-121c2-32-8-49-39-48" id="cN"/><path fill="#3a414a" d="M84 4C-5 8 30-112 23-190h32v120c0 31 7 50 39 49 72-2 45-101 50-169h31l1 190h-30c-1-10 1-25-2-33-11 22-28 36-60 37" id="cO"/><path fill="#3a414a" d="M115-194c53 0 69 39 70 98 0 66-23 100-70 100C84 3 66-7 56-30L54 0H23l1-261h32v101c10-23 28-34 59-34zm-8 174c40 0 45-34 45-75 0-40-5-75-45-74-42 0-51 32-51 76 0 43 10 73 51 73" id="cP"/><g id="aL"><use transform="matrix(0.06172839506172839,0,0,0.06172839506172839,0,0)" xlink:href="#cL"/><use transform="matrix(0.06172839506172839,0,0,0.06172839506172839,17.28395061728395,0)" xlink:href="#cM"/><use transform="matrix(0.06172839506172839,0,0,0.06172839506172839,22.160493827160494,0)" xlink:href="#aW"/><use transform="matrix(0.06172839506172839,0,0,0.06172839506172839,28.333333333333332,0)" xlink:href="#cN"/><use transform="matrix(0.06172839506172839,0,0,0.06172839506172839,40.67901234567901,0)" xlink:href="#cO"/><use transform="matrix(0.06172839506172839,0,0,0.06172839506172839,53.02469135802469,0)" xlink:href="#cP"/></g><g id="aM"><use transform="matrix(0.05925925925925927,0,0,0.05925925925925927,0,0)" xlink:href="#bW"/><use transform="matrix(0.05925925925925927,0,0,0.05925925925925927,15.34814814814815,0)" xlink:href="#bV"/><use transform="matrix(0.05925925925925927,0,0,0.05925925925925927,27.200000000000003,0)" xlink:href="#bT"/><use transform="matrix(0.05925925925925927,0,0,0.05925925925925927,39.05185185185186,0)" xlink:href="#cj"/><use transform="matrix(0.05925925925925927,0,0,0.05925925925925927,49.71851851851852,0)" xlink:href="#cl"/><use transform="matrix(0.05925925925925927,0,0,0.05925925925925927,54.400000000000006,0)" xlink:href="#bY"/><use transform="matrix(0.05925925925925927,0,0,0.05925925925925927,60.32592592592593,0)" xlink:href="#bV"/></g><g id="aN"><use transform="matrix(0.05925925925925927,0,0,0.05925925925925927,0,0)" xlink:href="#cc"/><use transform="matrix(0.05925925925925927,0,0,0.05925925925925927,7.051851851851853,0)" xlink:href="#bV"/><use transform="matrix(0.05925925925925927,0,0,0.05925925925925927,18.903703703703705,0)" xlink:href="#ci"/><use transform="matrix(0.05925925925925927,0,0,0.05925925925925927,30.75555555555556,0)" xlink:href="#cf"/><use transform="matrix(0.05925925925925927,0,0,0.05925925925925927,42.607407407407415,0)" xlink:href="#cj"/><use transform="matrix(0.05925925925925927,0,0,0.05925925925925927,53.27407407407408,0)" xlink:href="#cl"/><use transform="matrix(0.05925925925925927,0,0,0.05925925925925927,57.95555555555556,0)" xlink:href="#bY"/><use transform="matrix(0.05925925925925927,0,0,0.05925925925925927,63.881481481481494,0)" xlink:href="#cf"/><use transform="matrix(0.05925925925925927,0,0,0.05925925925925927,75.73333333333333,0)" xlink:href="#cc"/><use transform="matrix(0.05925925925925927,0,0,0.05925925925925927,82.78518518518518,0)" xlink:href="#cu"/></g><path fill="#3a414a" d="M96-169c-40 0-48 33-48 73s9 75 48 75c24 0 41-14 43-38l32 2c-6 37-31 61-74 61-59 0-76-41-82-99-10-93 101-131 147-64 4 7 5 14 7 22l-32 3c-4-21-16-35-41-35" id="cQ"/><path fill="#3a414a" d="M100-194c62-1 85 37 85 99 1 63-27 99-86 99S16-35 15-95c0-66 28-99 85-99zM99-20c44 1 53-31 53-75 0-43-8-75-51-75s-53 32-53 75 10 74 51 75" id="cR"/><path fill="#3a414a" d="M210-169c-67 3-38 105-44 169h-31v-121c0-29-5-50-35-48C34-165 62-65 56 0H25l-1-190h30c1 10-1 24 2 32 10-44 99-50 107 0 11-21 27-35 58-36 85-2 47 119 55 194h-31v-121c0-29-5-49-35-48" id="cS"/><g id="aO"><use transform="matrix(0.061728395061728385,0,0,0.061728395061728385,0,0)" xlink:href="#cQ"/><use transform="matrix(0.061728395061728385,0,0,0.061728395061728385,11.111111111111109,0)" xlink:href="#cR"/><use transform="matrix(0.061728395061728385,0,0,0.061728395061728385,23.456790123456784,0)" xlink:href="#cS"/><use transform="matrix(0.061728395061728385,0,0,0.061728395061728385,41.91358024691357,0)" xlink:href="#cS"/><use transform="matrix(0.061728395061728385,0,0,0.061728395061728385,60.37037037037035,0)" xlink:href="#cM"/><use transform="matrix(0.061728395061728385,0,0,0.061728395061728385,65.2469135802469,0)" xlink:href="#aW"/></g><path fill="#3a414a" d="M24 0v-261h32V0H24" id="cT"/><g id="aP"><use transform="matrix(0.061728395061728385,0,0,0.061728395061728385,0,0)" xlink:href="#aX"/><use transform="matrix(0.061728395061728385,0,0,0.061728395061728385,12.345679012345677,0)" xlink:href="#cT"/><use transform="matrix(0.061728395061728385,0,0,0.061728395061728385,17.22222222222222,0)" xlink:href="#cT"/></g><g id="aQ"><use transform="matrix(0.061728395061728385,0,0,0.061728395061728385,0,0)" xlink:href="#aW"/><use transform="matrix(0.061728395061728385,0,0,0.061728395061728385,6.1728395061728385,0)" xlink:href="#cN"/><use transform="matrix(0.061728395061728385,0,0,0.061728395061728385,18.518518518518515,0)" xlink:href="#cK"/></g><path fill="#3a414a" d="M117-194c89-4 53 116 60 194h-32v-121c0-31-8-49-39-48C34-167 62-67 57 0H25l-1-190h30c1 10-1 24 2 32 11-22 29-35 61-36" id="cU"/><path fill="#3a414a" d="M177-190C167-65 218 103 67 71c-23-6-38-20-44-43l32-5c15 47 100 32 89-28v-30C133-14 115 1 83 1 29 1 15-40 15-95c0-56 16-97 71-98 29-1 48 16 59 35 1-10 0-23 2-32h30zM94-22c36 0 50-32 50-73 0-42-14-75-50-75-39 0-46 34-46 75s6 73 46 73" id="cV"/><path fill="#3a414a" d="M135-143c-3-34-86-38-87 0 15 53 115 12 119 90S17 21 10-45l28-5c4 36 97 45 98 0-10-56-113-15-118-90-4-57 82-63 122-42 12 7 21 19 24 35" id="cW"/><g id="aR"><use transform="matrix(0.061728395061728385,0,0,0.061728395061728385,0,0)" xlink:href="#cQ"/><use transform="matrix(0.061728395061728385,0,0,0.061728395061728385,11.111111111111109,0)" xlink:href="#cN"/><use transform="matrix(0.061728395061728385,0,0,0.061728395061728385,23.456790123456784,0)" xlink:href="#aX"/><use transform="matrix(0.061728395061728385,0,0,0.061728395061728385,35.80246913580246,0)" xlink:href="#cU"/><use transform="matrix(0.061728395061728385,0,0,0.061728395061728385,48.14814814814814,0)" xlink:href="#cV"/><use transform="matrix(0.061728395061728385,0,0,0.061728395061728385,60.493827160493815,0)" xlink:href="#cK"/><use transform="matrix(0.061728395061728385,0,0,0.061728395061728385,72.83950617283949,0)" xlink:href="#cW"/></g><path fill="#1f2328" d="M140-251c81 0 123 46 123 126C263-46 219 4 140 4 59 4 17-45 17-125s42-126 123-126zm0 227c63 0 89-41 89-101s-29-99-89-99c-61 0-89 39-89 99S79-25 140-24" id="cX"/><g id="aS"><use transform="matrix(0.059259259259259255,0,0,0.059259259259259255,0,0)" xlink:href="#cX"/><use transform="matrix(0.059259259259259255,0,0,0.059259259259259255,16.59259259259259,0)" xlink:href="#cm"/><use transform="matrix(0.059259259259259255,0,0,0.059259259259259255,22.1037037037037,0)" xlink:href="#cm"/><use transform="matrix(0.059259259259259255,0,0,0.059259259259259255,28.029629629629625,0)" xlink:href="#cl"/><use transform="matrix(0.059259259259259255,0,0,0.059259259259259255,32.71111111111111,0)" xlink:href="#ck"/><use transform="matrix(0.059259259259259255,0,0,0.059259259259259255,43.37777777777777,0)" xlink:href="#cl"/><use transform="matrix(0.059259259259259255,0,0,0.059259259259259255,48.05925925925926,0)" xlink:href="#bS"/><use transform="matrix(0.059259259259259255,0,0,0.059259259259259255,59.91111111111111,0)" xlink:href="#ct"/></g><path fill="#1f2328" d="M266 0h-40l-56-210L115 0H75L2-248h35L96-30l15-64 43-154h32l59 218 59-218h35" id="cY"/><g id="aT"><use transform="matrix(0.059259259259259255,0,0,0.059259259259259255,0,0)" xlink:href="#cY"/><use transform="matrix(0.059259259259259255,0,0,0.059259259259259255,19.674074074074074,0)" xlink:href="#bV"/><use transform="matrix(0.059259259259259255,0,0,0.059259259259259255,31.52592592592592,0)" xlink:href="#bT"/><use transform="matrix(0.059259259259259255,0,0,0.059259259259259255,43.37777777777778,0)" xlink:href="#cj"/><use transform="matrix(0.059259259259259255,0,0,0.059259259259259255,54.044444444444444,0)" xlink:href="#cl"/><use transform="matrix(0.059259259259259255,0,0,0.059259259259259255,58.72592592592593,0)" xlink:href="#bY"/><use transform="matrix(0.059259259259259255,0,0,0.059259259259259255,64.65185185185186,0)" xlink:href="#bV"/></g><g id="aU"><use transform="matrix(0.06172839506172839,0,0,0.06172839506172839,0,0)" xlink:href="#aV"/><use transform="matrix(0.06172839506172839,0,0,0.06172839506172839,14.814814814814813,0)" xlink:href="#aW"/><use transform="matrix(0.06172839506172839,0,0,0.06172839506172839,20.98765432098765,0)" xlink:href="#cR"/><use transform="matrix(0.06172839506172839,0,0,0.06172839506172839,33.33333333333333,0)" xlink:href="#cI"/></g></defs></g></svg>